BenchTwelve-Heavy.ufo
<glyph name="quotedbl" format="1">
  <advance width="604"/>
  <unicode hex="0022"/>
  <outline>
    <contour>
      <point x="148" y="682" type="curve" smooth="yes"/>
      <point x="178" y="682" type="line" smooth="yes"/>
      <point x="193" y="682"/>
      <point x="201" y="716"/>
      <point x="204" y="758" type="curve" smooth="yes"/>
      <point x="249" y="1455" type="line" smooth="yes"/>
      <point x="251" y="1497"/>
      <point x="240" y="1531"/>
      <point x="225" y="1531" type="curve" smooth="yes"/>
      <point x="102" y="1531" type="line" smooth="yes"/>
      <point x="87" y="1531"/>
      <point x="74" y="1497"/>
      <point x="77" y="1455" type="curve" smooth="yes"/>
      <point x="122" y="758" type="line" smooth="yes"/>
      <point x="124" y="716"/>
      <point x="133" y="682"/>
    </contour>
    <contour>
      <point x="435" y="682" type="curve" smooth="yes"/>
      <point x="466" y="682" type="line" smooth="yes"/>
      <point x="481" y="682"/>
      <point x="489" y="716"/>
      <point x="491" y="758" type="curve" smooth="yes"/>
      <point x="536" y="1455" type="line" smooth="yes"/>
      <point x="539" y="1497"/>
      <point x="526" y="1531"/>
      <point x="512" y="1531" type="curve" smooth="yes"/>
      <point x="389" y="1531" type="line" smooth="yes"/>
      <point x="374" y="1531"/>
      <point x="362" y="1497"/>
      <point x="364" y="1455" type="curve" smooth="yes"/>
      <point x="409" y="758" type="line" smooth="yes"/>
      <point x="412" y="716"/>
      <point x="420" y="682"/>
    </contour>
  </outline>
</glyph>
<glyph name="percent" format="1">
  <advance width="1032"/>
  <unicode hex="0025"/>
  <outline>
    <contour>
      <point x="362" y="-82" type="curve" smooth="yes"/>
      <point x="417" y="-82" type="line" smooth="yes"/>
      <point x="432" y="-82"/>
      <point x="446" y="-54"/>
      <point x="453" y="-12" type="curve" smooth="yes"/>
      <point x="676" y="1466" type="line"/>
      <point x="682" y="1499"/>
      <point x="674" y="1536"/>
      <point x="662" y="1536" type="curve" smooth="yes"/>
      <point x="607" y="1536" type="line" smooth="yes"/>
      <point x="591" y="1536"/>
      <point x="576" y="1508"/>
      <point x="570" y="1466" type="curve" smooth="yes"/>
      <point x="346" y="-12" type="line" smooth="yes"/>
      <point x="341" y="-45"/>
      <point x="349" y="-82"/>
    </contour>
    <contour>
      <point x="187" y="733" type="curve" smooth="yes"/>
      <point x="128" y="733"/>
      <point x="109" y="839"/>
      <point x="109" y="1023" type="curve" smooth="yes"/>
      <point x="109" y="1211"/>
      <point x="129" y="1322"/>
      <point x="187" y="1322" type="curve" smooth="yes"/>
      <point x="244" y="1322"/>
      <point x="265" y="1211"/>
      <point x="265" y="1023" type="curve" smooth="yes"/>
      <point x="265" y="839"/>
      <point x="245" y="733"/>
    </contour>
    <contour>
      <point x="187" y="597" type="curve" smooth="yes"/>
      <point x="307" y="597"/>
      <point x="378" y="735"/>
      <point x="378" y="1030" type="curve" smooth="yes"/>
      <point x="378" y="1323"/>
      <point x="309" y="1459"/>
      <point x="187" y="1459" type="curve" smooth="yes"/>
      <point x="64" y="1459"/>
      <point x="-5" y="1323"/>
      <point x="-5" y="1030" type="curve" smooth="yes"/>
      <point x="-5" y="735"/>
      <point x="66" y="597"/>
    </contour>
    <contour>
      <point x="831" y="136" type="curve" smooth="yes"/>
      <point x="772" y="136"/>
      <point x="753" y="242"/>
      <point x="753" y="426" type="curve" smooth="yes"/>
      <point x="753" y="614"/>
      <point x="773" y="726"/>
      <point x="831" y="726" type="curve" smooth="yes"/>
      <point x="888" y="726"/>
      <point x="908" y="614"/>
      <point x="908" y="426" type="curve" smooth="yes"/>
      <point x="908" y="242"/>
      <point x="889" y="136"/>
    </contour>
    <contour>
      <point x="831" y="0" type="curve" smooth="yes"/>
      <point x="951" y="0"/>
      <point x="1022" y="139"/>
      <point x="1022" y="434" type="curve" smooth="yes"/>
      <point x="1022" y="727"/>
      <point x="953" y="862"/>
      <point x="831" y="862" type="curve" smooth="yes"/>
      <point x="708" y="862"/>
      <point x="639" y="727"/>
      <point x="639" y="434" type="curve" smooth="yes"/>
      <point x="639" y="139"/>
      <point x="710" y="0"/>
    </contour>
  </outline>
</glyph>
<glyph name="ampersand" format="1">
  <advance width="1252"/>
  <unicode hex="0026"/>
  <outline>
    <contour>
      <point x="486" y="-20" type="curve" smooth="yes"/>
      <point x="667" y="-20"/>
      <point x="734" y="78"/>
      <point x="784" y="122" type="curve"/>
      <point x="836" y="19"/>
      <point x="973" y="-21"/>
      <point x="1052" y="-21" type="curve" smooth="yes"/>
      <point x="1104" y="-21"/>
      <point x="1152" y="-4"/>
      <point x="1191" y="18" type="curve" smooth="yes"/>
      <point x="1208" y="28"/>
      <point x="1219" y="65"/>
      <point x="1218" y="106" type="curve" smooth="yes"/>
      <point x="1218" y="186" type="line" smooth="yes"/>
      <point x="1217" y="225"/>
      <point x="1205" y="250"/>
      <point x="1188" y="239" type="curve" smooth="yes"/>
      <point x="1160" y="221"/>
      <point x="1126" y="206"/>
      <point x="1093" y="206" type="curve" smooth="yes"/>
      <point x="1039" y="206"/>
      <point x="993" y="247"/>
      <point x="993" y="389" type="curve" smooth="yes"/>
      <point x="993" y="613" type="line" smooth="yes"/>
      <point x="993" y="633"/>
      <point x="999" y="642"/>
      <point x="1007" y="642" type="curve" smooth="yes"/>
      <point x="1156" y="642" type="line" smooth="yes"/>
      <point x="1174" y="642"/>
      <point x="1187" y="673"/>
      <point x="1187" y="716" type="curve" smooth="yes"/>
      <point x="1187" y="777" type="line" smooth="yes"/>
      <point x="1187" y="819"/>
      <point x="1174" y="850"/>
      <point x="1156" y="850" type="curve" smooth="yes"/>
      <point x="1007" y="850" type="line" smooth="yes"/>
      <point x="999" y="850"/>
      <point x="993" y="860"/>
      <point x="993" y="880" type="curve" smooth="yes"/>
      <point x="993" y="1354" type="line" smooth="yes"/>
      <point x="993" y="1397"/>
      <point x="979" y="1408"/>
      <point x="962" y="1408" type="curve" smooth="yes"/>
      <point x="782" y="1408" type="line" smooth="yes"/>
      <point x="764" y="1408"/>
      <point x="752" y="1397"/>
      <point x="751" y="1354" type="curve" smooth="yes"/>
      <point x="740" y="880" type="line" smooth="yes"/>
      <point x="740" y="860"/>
      <point x="733" y="850"/>
      <point x="725" y="850" type="curve" smooth="yes"/>
      <point x="485" y="850" type="line" smooth="yes"/>
      <point x="391" y="850"/>
      <point x="353" y="971"/>
      <point x="353" y="1061" type="curve" smooth="yes"/>
      <point x="354" y="1193"/>
      <point x="443" y="1234"/>
      <point x="504" y="1234" type="curve" smooth="yes"/>
      <point x="588" y="1234"/>
      <point x="596" y="1216"/>
      <point x="606" y="1213" type="curve" smooth="yes"/>
      <point x="623" y="1204"/>
      <point x="632" y="1213"/>
      <point x="633" y="1252" type="curve" smooth="yes"/>
      <point x="642" y="1358" type="line" smooth="yes"/>
      <point x="650" y="1399"/>
      <point x="637" y="1415"/>
      <point x="620" y="1426" type="curve" smooth="yes"/>
      <point x="594" y="1442"/>
      <point x="544" y="1460"/>
      <point x="460" y="1460" type="curve" smooth="yes"/>
      <point x="238" y="1460"/>
      <point x="100" y="1319"/>
      <point x="100" y="1039" type="curve" smooth="yes"/>
      <point x="100" y="859"/>
      <point x="208" y="759"/>
      <point x="289" y="738" type="curve"/>
      <point x="200" y="711"/>
      <point x="102" y="585"/>
      <point x="102" y="397" type="curve" smooth="yes"/>
      <point x="102" y="92"/>
      <point x="269" y="-20"/>
    </contour>
    <contour>
      <point x="528" y="187" type="curve" smooth="yes"/>
      <point x="447" y="187"/>
      <point x="355" y="247"/>
      <point x="355" y="407" type="curve" smooth="yes"/>
      <point x="355" y="509"/>
      <point x="403" y="641"/>
      <point x="495" y="642" type="curve" smooth="yes"/>
      <point x="569" y="642"/>
      <point x="652" y="643"/>
      <point x="725" y="642" type="curve" smooth="yes"/>
      <point x="733" y="642"/>
      <point x="740" y="634"/>
      <point x="740" y="614" type="curve" smooth="yes"/>
      <point x="740" y="614"/>
      <point x="742" y="340"/>
      <point x="744" y="304" type="curve"/>
      <point x="729" y="281"/>
      <point x="686" y="187"/>
    </contour>
  </outline>
</glyph>
<glyph name="parenleft" format="1">
  <advance width="478"/>
  <unicode hex="0028"/>
  <outline>
    <contour>
      <point x="342" y="-143" type="curve" smooth="yes"/>
      <point x="355" y="-146"/>
      <point x="368" y="-111"/>
      <point x="368" y="-73" type="curve" smooth="yes"/>
      <point x="368" y="23" type="line" smooth="yes"/>
      <point x="368" y="92"/>
      <point x="364" y="112"/>
      <point x="343" y="142" type="curve"/>
      <point x="297" y="208"/>
      <point x="273" y="445"/>
      <point x="273" y="698" type="curve" smooth="yes"/>
      <point x="273" y="952"/>
      <point x="298" y="1190"/>
      <point x="342" y="1256" type="curve" smooth="yes"/>
      <point x="363" y="1287"/>
      <point x="368" y="1307"/>
      <point x="368" y="1376" type="curve" smooth="yes"/>
      <point x="368" y="1470" type="line" smooth="yes"/>
      <point x="368" y="1508"/>
      <point x="355" y="1543"/>
      <point x="342" y="1540" type="curve" smooth="yes"/>
      <point x="186" y="1497"/>
      <point x="110" y="1098"/>
      <point x="110" y="698" type="curve" smooth="yes"/>
      <point x="110" y="297"/>
      <point x="186" y="-101"/>
    </contour>
  </outline>
</glyph>
<glyph name="parenright" format="1">
  <advance width="481"/>
  <unicode hex="0029"/>
  <outline>
    <contour>
      <point x="137" y="-143" type="curve" smooth="yes"/>
      <point x="293" y="-101"/>
      <point x="369" y="297"/>
      <point x="369" y="698" type="curve" smooth="yes"/>
      <point x="369" y="1098"/>
      <point x="293" y="1497"/>
      <point x="137" y="1540" type="curve" smooth="yes"/>
      <point x="124" y="1543"/>
      <point x="111" y="1508"/>
      <point x="111" y="1470" type="curve" smooth="yes"/>
      <point x="111" y="1376" type="line" smooth="yes"/>
      <point x="111" y="1307"/>
      <point x="116" y="1287"/>
      <point x="137" y="1256" type="curve" smooth="yes"/>
      <point x="182" y="1190"/>
      <point x="206" y="952"/>
      <point x="206" y="698" type="curve" smooth="yes"/>
      <point x="206" y="445"/>
      <point x="182" y="208"/>
      <point x="136" y="142" type="curve" smooth="yes"/>
      <point x="115" y="112"/>
      <point x="111" y="92"/>
      <point x="111" y="23" type="curve" smooth="yes"/>
      <point x="111" y="-73" type="line" smooth="yes"/>
      <point x="111" y="-111"/>
      <point x="124" y="-146"/>
    </contour>
  </outline>
</glyph>
<glyph name="plus" format="1">
  <advance width="801"/>
  <unicode hex="002B"/>
  <outline>
    <contour>
      <point x="352" y="253" type="curve" smooth="yes"/>
      <point x="450" y="253" type="line" smooth="yes"/>
      <point x="468" y="253"/>
      <point x="481" y="257"/>
      <point x="481" y="298" type="curve" smooth="yes"/>
      <point x="481" y="511" type="line" smooth="yes"/>
      <point x="481" y="531"/>
      <point x="488" y="533"/>
      <point x="498" y="533" type="curve" smooth="yes"/>
      <point x="668" y="533" type="line" smooth="yes"/>
      <point x="684" y="533"/>
      <point x="699" y="537"/>
      <point x="699" y="578" type="curve" smooth="yes"/>
      <point x="699" y="623" type="line" smooth="yes"/>
      <point x="699" y="664"/>
      <point x="684" y="667"/>
      <point x="668" y="667" type="curve" smooth="yes"/>
      <point x="498" y="667" type="line" smooth="yes"/>
      <point x="488" y="667"/>
      <point x="481" y="669"/>
      <point x="481" y="689" type="curve" smooth="yes"/>
      <point x="481" y="890" type="line" smooth="yes"/>
      <point x="481" y="931"/>
      <point x="468" y="935"/>
      <point x="450" y="935" type="curve" smooth="yes"/>
      <point x="352" y="935" type="line" smooth="yes"/>
      <point x="333" y="935"/>
      <point x="319" y="931"/>
      <point x="319" y="890" type="curve" smooth="yes"/>
      <point x="319" y="689" type="line" smooth="yes"/>
      <point x="319" y="669"/>
      <point x="313" y="667"/>
      <point x="304" y="667" type="curve" smooth="yes"/>
      <point x="131" y="667" type="line" smooth="yes"/>
      <point x="114" y="667"/>
      <point x="100" y="664"/>
      <point x="100" y="623" type="curve" smooth="yes"/>
      <point x="100" y="578" type="line" smooth="yes"/>
      <point x="100" y="537"/>
      <point x="114" y="533"/>
      <point x="131" y="533" type="curve" smooth="yes"/>
      <point x="304" y="533" type="line" smooth="yes"/>
      <point x="313" y="533"/>
      <point x="319" y="531"/>
      <point x="319" y="511" type="curve" smooth="yes"/>
      <point x="319" y="298" type="line" smooth="yes"/>
      <point x="319" y="257"/>
      <point x="333" y="253"/>
    </contour>
  </outline>
</glyph>
<glyph name="zero" format="1">
  <advance width="939"/>
  <unicode hex="0030"/>
  <outline>
    <contour>
      <point x="468" y="192" type="curve" smooth="yes"/>
      <point x="369" y="192"/>
      <point x="347" y="349"/>
      <point x="347" y="720" type="curve" smooth="yes"/>
      <point x="347" y="1089"/>
      <point x="365" y="1249"/>
      <point x="465" y="1249" type="curve" smooth="yes"/>
      <point x="564" y="1249"/>
      <point x="589" y="1089"/>
      <point x="589" y="720" type="curve" smooth="yes"/>
      <point x="589" y="349"/>
      <point x="567" y="192"/>
    </contour>
    <contour>
      <point x="467" y="-16" type="curve" smooth="yes"/>
      <point x="648" y="-16"/>
      <point x="827" y="119"/>
      <point x="827" y="720" type="curve" smooth="yes"/>
      <point x="827" y="1365"/>
      <point x="647" y="1456"/>
      <point x="466" y="1456" type="curve" smooth="yes"/>
      <point x="285" y="1456"/>
      <point x="110" y="1364"/>
      <point x="110" y="720" type="curve" smooth="yes"/>
      <point x="110" y="119"/>
      <point x="285" y="-16"/>
    </contour>
  </outline>
</glyph>
<glyph name="three" format="1">
  <advance width="642"/>
  <unicode hex="0033"/>
  <outline>
    <contour>
      <point x="266" y="-16" type="curve" smooth="yes"/>
      <point x="436" y="-16"/>
      <point x="602" y="78"/>
      <point x="602" y="357" type="curve" smooth="yes"/>
      <point x="602" y="561"/>
      <point x="530" y="692"/>
      <point x="400" y="727" type="curve"/>
      <point x="536" y="759"/>
      <point x="598" y="892"/>
      <point x="598" y="1060" type="curve" smooth="yes"/>
      <point x="598" y="1348"/>
      <point x="461" y="1456"/>
      <point x="283" y="1456" type="curve" smooth="yes"/>
      <point x="147" y="1456"/>
      <point x="96" y="1429"/>
      <point x="63" y="1406" type="curve"/>
      <point x="53" y="1398"/>
      <point x="48" y="1341"/>
      <point x="48" y="1340" type="curve" smooth="yes"/>
      <point x="48" y="1339"/>
      <point x="53" y="1244"/>
      <point x="54" y="1244" type="curve" smooth="yes"/>
      <point x="55" y="1206"/>
      <point x="60" y="1197"/>
      <point x="73" y="1206" type="curve"/>
      <point x="86" y="1214"/>
      <point x="143" y="1247"/>
      <point x="245" y="1247" type="curve" smooth="yes"/>
      <point x="330" y="1247"/>
      <point x="380" y="1199"/>
      <point x="380" y="1050" type="curve" smooth="yes"/>
      <point x="380" y="934"/>
      <point x="336" y="833"/>
      <point x="236" y="833" type="curve" smooth="yes"/>
      <point x="236" y="833"/>
      <point x="201" y="833"/>
      <point x="200" y="833" type="curve" smooth="yes"/>
      <point x="172" y="833"/>
      <point x="166" y="825"/>
      <point x="166" y="811" type="curve" smooth="yes"/>
      <point x="166" y="666" type="line" smooth="yes"/>
      <point x="166" y="633"/>
      <point x="171" y="625"/>
      <point x="200" y="625" type="curve" smooth="yes"/>
      <point x="201" y="625"/>
      <point x="236" y="625"/>
      <point x="236" y="625" type="curve" smooth="yes"/>
      <point x="337" y="625"/>
      <point x="385" y="508"/>
      <point x="386" y="400" type="curve" smooth="yes"/>
      <point x="386" y="283"/>
      <point x="337" y="190"/>
      <point x="229" y="190" type="curve" smooth="yes"/>
      <point x="134" y="190"/>
      <point x="84" y="231"/>
      <point x="71" y="239" type="curve" smooth="yes"/>
      <point x="55" y="254"/>
      <point x="54" y="233"/>
      <point x="52" y="202" type="curve" smooth="yes"/>
      <point x="52" y="202"/>
      <point x="49" y="105"/>
      <point x="49" y="104" type="curve" smooth="yes"/>
      <point x="49" y="103"/>
      <point x="54" y="46"/>
      <point x="64" y="37" type="curve"/>
      <point x="96" y="4"/>
      <point x="156" y="-16"/>
    </contour>
  </outline>
</glyph>
<glyph name="four" format="1">
  <advance width="915"/>
  <unicode hex="0034"/>
  <outline>
    <contour>
      <point x="567" y="-1" type="curve" smooth="yes"/>
      <point x="704" y="-1" type="line" smooth="yes"/>
      <point x="729" y="-1"/>
      <point x="743" y="24"/>
      <point x="743" y="66" type="curve" smooth="yes"/>
      <point x="743" y="286" type="line"/>
      <point x="851" y="286" type="line" smooth="yes"/>
      <point x="876" y="286"/>
      <point x="891" y="311"/>
      <point x="891" y="351" type="curve" smooth="yes"/>
      <point x="891" y="441" type="line" smooth="yes"/>
      <point x="891" y="482"/>
      <point x="876" y="506"/>
      <point x="851" y="506" type="curve" smooth="yes"/>
      <point x="743" y="506" type="line"/>
      <point x="743" y="1371" type="line" smooth="yes"/>
      <point x="743" y="1413"/>
      <point x="729" y="1438"/>
      <point x="704" y="1438" type="curve" smooth="yes"/>
      <point x="567" y="1438" type="line" smooth="yes"/>
      <point x="543" y="1438"/>
      <point x="528" y="1413"/>
      <point x="528" y="1371" type="curve" smooth="yes"/>
      <point x="528" y="506" type="line"/>
      <point x="343" y="506" type="line" smooth="yes"/>
      <point x="332" y="506"/>
      <point x="325" y="538"/>
      <point x="326" y="539" type="curve" smooth="yes"/>
      <point x="412" y="1370" type="line" smooth="yes"/>
      <point x="420" y="1415"/>
      <point x="397" y="1438"/>
      <point x="373" y="1438" type="curve" smooth="yes"/>
      <point x="262" y="1438" type="line" smooth="yes"/>
      <point x="238" y="1438"/>
      <point x="231" y="1411"/>
      <point x="223" y="1370" type="curve" smooth="yes"/>
      <point x="75" y="353" type="line" smooth="yes"/>
      <point x="68" y="315"/>
      <point x="89" y="286"/>
      <point x="115" y="286" type="curve" smooth="yes"/>
      <point x="528" y="286" type="line"/>
      <point x="528" y="66" type="line" smooth="yes"/>
      <point x="528" y="24"/>
      <point x="543" y="-1"/>
    </contour>
  </outline>
</glyph>
<glyph name="six" format="1">
  <advance width="877"/>
  <unicode hex="0036"/>
  <outline>
    <contour>
      <point x="466" y="-16" type="curve" smooth="yes"/>
      <point x="671" y="-16"/>
      <point x="820" y="58"/>
      <point x="820" y="448" type="curve" smooth="yes"/>
      <point x="820" y="726"/>
      <point x="722" y="932"/>
      <point x="497" y="932" type="curve" smooth="yes"/>
      <point x="451" y="932"/>
      <point x="409" y="907"/>
      <point x="364" y="887" type="curve"/>
      <point x="364" y="905" type="line" smooth="yes"/>
      <point x="364" y="1187"/>
      <point x="455" y="1244"/>
      <point x="567" y="1244" type="curve" smooth="yes"/>
      <point x="649" y="1244"/>
      <point x="716" y="1201"/>
      <point x="727" y="1194" type="curve" smooth="yes"/>
      <point x="743" y="1184"/>
      <point x="748" y="1197"/>
      <point x="750" y="1234" type="curve" smooth="yes"/>
      <point x="751" y="1234"/>
      <point x="758" y="1334"/>
      <point x="758" y="1335" type="curve" smooth="yes"/>
      <point x="758" y="1335"/>
      <point x="753" y="1387"/>
      <point x="741" y="1397" type="curve" smooth="yes"/>
      <point x="706" y="1427"/>
      <point x="592" y="1456"/>
      <point x="508" y="1456" type="curve" smooth="yes"/>
      <point x="213" y="1456"/>
      <point x="110" y="1216"/>
      <point x="110" y="664" type="curve" smooth="yes"/>
      <point x="110" y="138"/>
      <point x="254" y="-15"/>
    </contour>
    <contour>
      <point x="472" y="192" type="curve" smooth="yes"/>
      <point x="407" y="192"/>
      <point x="364" y="251"/>
      <point x="364" y="516" type="curve" smooth="yes"/>
      <point x="364" y="680" type="line"/>
      <point x="407" y="706"/>
      <point x="447" y="721"/>
      <point x="481" y="721" type="curve" smooth="yes"/>
      <point x="554" y="721"/>
      <point x="573" y="613"/>
      <point x="573" y="467" type="curve" smooth="yes"/>
      <point x="573" y="236"/>
      <point x="535" y="191"/>
    </contour>
  </outline>
</glyph>
<glyph name="seven" format="1">
  <advance width="670"/>
  <unicode hex="0037"/>
  <outline>
    <contour>
      <point x="224" y="0" type="curve" smooth="yes"/>
      <point x="415" y="0" type="line" smooth="yes"/>
      <point x="430" y="0"/>
      <point x="440" y="33"/>
      <point x="444" y="75" type="curve" smooth="yes"/>
      <point x="563" y="1363" type="line" smooth="yes"/>
      <point x="566" y="1405"/>
      <point x="553" y="1438"/>
      <point x="539" y="1438" type="curve" smooth="yes"/>
      <point x="128" y="1438" type="line" smooth="yes"/>
      <point x="113" y="1438"/>
      <point x="101" y="1425"/>
      <point x="101" y="1383" type="curve" smooth="yes"/>
      <point x="101" y="1227" type="line" smooth="yes"/>
      <point x="101" y="1185"/>
      <point x="113" y="1172"/>
      <point x="128" y="1172" type="curve" smooth="yes"/>
      <point x="285" y="1172" type="line" smooth="yes"/>
      <point x="292" y="1172"/>
      <point x="298" y="1156"/>
      <point x="296" y="1136" type="curve" smooth="yes"/>
      <point x="200" y="75" type="line" smooth="yes"/>
      <point x="196" y="33"/>
      <point x="209" y="0"/>
    </contour>
  </outline>
</glyph>
<glyph name="eight" format="1">
  <advance width="875"/>
  <unicode hex="0038"/>
  <outline>
    <contour>
      <point x="532" y="870" type="curve"/>
      <point x="395" y="859"/>
      <point x="329" y="919"/>
      <point x="329" y="1090" type="curve" smooth="yes"/>
      <point x="329" y="1232"/>
      <point x="384" y="1261"/>
      <point x="439" y="1261" type="curve" smooth="yes"/>
      <point x="493" y="1261"/>
      <point x="550" y="1215"/>
      <point x="550" y="1072" type="curve" smooth="yes"/>
      <point x="550" y="1003"/>
      <point x="545" y="873"/>
    </contour>
    <contour>
      <point x="440" y="-16" type="curve" smooth="yes"/>
      <point x="599" y="-16"/>
      <point x="763" y="56"/>
      <point x="763" y="443" type="curve" smooth="yes"/>
      <point x="763" y="634"/>
      <point x="732" y="731"/>
      <point x="666" y="800" type="curve"/>
      <point x="706" y="841"/>
      <point x="733" y="955"/>
      <point x="733" y="1080" type="curve" smooth="yes"/>
      <point x="733" y="1403"/>
      <point x="578" y="1456"/>
      <point x="439" y="1456" type="curve" smooth="yes"/>
      <point x="300" y="1456"/>
      <point x="142" y="1400"/>
      <point x="142" y="1072" type="curve" smooth="yes"/>
      <point x="142" y="944"/>
      <point x="173" y="854"/>
      <point x="216" y="803" type="curve"/>
      <point x="158" y="760"/>
      <point x="112" y="634"/>
      <point x="112" y="444" type="curve" smooth="yes"/>
      <point x="112" y="25"/>
      <point x="280" y="-16"/>
    </contour>
    <contour>
      <point x="440" y="232" type="curve" smooth="yes"/>
      <point x="375" y="232"/>
      <point x="317" y="291"/>
      <point x="317" y="482" type="curve" smooth="yes"/>
      <point x="317" y="566"/>
      <point x="325" y="669"/>
      <point x="337" y="710" type="curve"/>
      <point x="415" y="658"/>
      <point x="555" y="718"/>
      <point x="555" y="463" type="curve" smooth="yes"/>
      <point x="555" y="272"/>
      <point x="502" y="232"/>
    </contour>
  </outline>
</glyph>
<glyph name="nine" format="1">
  <advance width="930"/>
  <unicode hex="0039"/>
  <outline>
    <contour>
      <point x="441" y="-16" type="curve" smooth="yes"/>
      <point x="724" y="-16"/>
      <point x="818" y="192"/>
      <point x="818" y="774" type="curve" smooth="yes"/>
      <point x="818" y="1305"/>
      <point x="674" y="1457"/>
      <point x="462" y="1457" type="curve" smooth="yes"/>
      <point x="258" y="1457"/>
      <point x="110" y="1378"/>
      <point x="110" y="990" type="curve" smooth="yes"/>
      <point x="110" y="710"/>
      <point x="209" y="506"/>
      <point x="432" y="506" type="curve" smooth="yes"/>
      <point x="480" y="506"/>
      <point x="521" y="531"/>
      <point x="564" y="551" type="curve"/>
      <point x="564" y="530" type="line" smooth="yes"/>
      <point x="564" y="304"/>
      <point x="540" y="206"/>
      <point x="427" y="206" type="curve" smooth="yes"/>
      <point x="315" y="206"/>
      <point x="207" y="266"/>
      <point x="194" y="274" type="curve" smooth="yes"/>
      <point x="178" y="284"/>
      <point x="172" y="273"/>
      <point x="170" y="234" type="curve" smooth="yes"/>
      <point x="162" y="133" type="line"/>
      <point x="162" y="132"/>
      <point x="167" y="80"/>
      <point x="180" y="71" type="curve" smooth="yes"/>
      <point x="218" y="37"/>
      <point x="361" y="-16"/>
    </contour>
    <contour>
      <point x="449" y="716" type="curve" smooth="yes"/>
      <point x="377" y="716"/>
      <point x="357" y="822"/>
      <point x="357" y="971" type="curve" smooth="yes"/>
      <point x="357" y="1199"/>
      <point x="395" y="1241"/>
      <point x="456" y="1241" type="curve" smooth="yes"/>
      <point x="521" y="1241"/>
      <point x="564" y="1190"/>
      <point x="564" y="929" type="curve" smooth="yes"/>
      <point x="564" y="759" type="line"/>
      <point x="523" y="731"/>
      <point x="483" y="716"/>
    </contour>
  </outline>
</glyph>
<glyph name="colon" format="1">
  <advance width="364"/>
  <unicode hex="003A"/>
  <outline>
    <contour>
      <point x="131" y="0" type="curve" smooth="yes"/>
      <point x="238" y="0" type="line" smooth="yes"/>
      <point x="253" y="0"/>
      <point x="265" y="15"/>
      <point x="265" y="58" type="curve" smooth="yes"/>
      <point x="265" y="289" type="line" smooth="yes"/>
      <point x="265" y="332"/>
      <point x="253" y="347"/>
      <point x="238" y="347" type="curve" smooth="yes"/>
      <point x="131" y="347" type="line" smooth="yes"/>
      <point x="116" y="347"/>
      <point x="104" y="332"/>
      <point x="104" y="289" type="curve" smooth="yes"/>
      <point x="104" y="58" type="line" smooth="yes"/>
      <point x="104" y="15"/>
      <point x="116" y="0"/>
    </contour>
    <contour>
      <point x="131" y="661" type="curve" smooth="yes"/>
      <point x="238" y="661" type="line" smooth="yes"/>
      <point x="253" y="661"/>
      <point x="265" y="676"/>
      <point x="265" y="719" type="curve" smooth="yes"/>
      <point x="265" y="950" type="line" smooth="yes"/>
      <point x="265" y="993"/>
      <point x="253" y="1008"/>
      <point x="238" y="1008" type="curve" smooth="yes"/>
      <point x="131" y="1008" type="line" smooth="yes"/>
      <point x="116" y="1008"/>
      <point x="104" y="993"/>
      <point x="104" y="950" type="curve" smooth="yes"/>
      <point x="104" y="719" type="line" smooth="yes"/>
      <point x="104" y="676"/>
      <point x="116" y="661"/>
    </contour>
  </outline>
</glyph>
<glyph name="less" format="1">
  <advance width="1340"/>
  <unicode hex="003C"/>
  <outline>
    <contour>
      <point x="588" y="166" type="curve" smooth="yes"/>
      <point x="614" y="166"/>
      <point x="632" y="187"/>
      <point x="632" y="209" type="curve" smooth="yes"/>
      <point x="632" y="289" type="line" smooth="yes"/>
      <point x="632" y="337"/>
      <point x="608" y="354"/>
      <point x="573" y="389" type="curve" smooth="yes"/>
      <point x="356" y="621" type="line" smooth="yes"/>
      <point x="349" y="628"/>
      <point x="345" y="635"/>
      <point x="345" y="642" type="curve" smooth="yes"/>
      <point x="345" y="648"/>
      <point x="348" y="655"/>
      <point x="356" y="663" type="curve" smooth="yes"/>
      <point x="573" y="890" type="line" smooth="yes"/>
      <point x="608" y="926"/>
      <point x="632" y="942"/>
      <point x="632" y="990" type="curve" smooth="yes"/>
      <point x="632" y="1065" type="line" smooth="yes"/>
      <point x="632" y="1088"/>
      <point x="614" y="1109"/>
      <point x="588" y="1109" type="curve" smooth="yes"/>
      <point x="578" y="1109"/>
      <point x="567" y="1105"/>
      <point x="557" y="1099" type="curve" smooth="yes"/>
      <point x="261" y="794" type="line" smooth="yes"/>
      <point x="221" y="754"/>
      <point x="190" y="724"/>
      <point x="190" y="675" type="curve" smooth="yes"/>
      <point x="190" y="606" type="line" smooth="yes"/>
      <point x="190" y="557"/>
      <point x="221" y="529"/>
      <point x="260" y="490" type="curve" smooth="yes"/>
      <point x="557" y="176" type="line" smooth="yes"/>
      <point x="568" y="170"/>
      <point x="579" y="166"/>
    </contour>
  </outline>
</glyph>
<glyph name="question" format="1">
  <advance width="798"/>
  <unicode hex="003F"/>
  <outline>
    <contour>
      <point x="285" y="546" type="curve" smooth="yes"/>
      <point x="300" y="515"/>
      <point x="329" y="538"/>
      <point x="337" y="547" type="curve"/>
      <point x="360" y="576"/>
      <point x="410" y="626"/>
      <point x="464" y="662" type="curve"/>
      <point x="563" y="729"/>
      <point x="726" y="841"/>
      <point x="726" y="1061" type="curve" smooth="yes"/>
      <point x="715" y="1404"/>
      <point x="529" y="1474"/>
      <point x="378" y="1474" type="curve" smooth="yes"/>
      <point x="278" y="1474"/>
      <point x="164" y="1426"/>
      <point x="108" y="1378" type="curve"/>
      <point x="96" y="1368"/>
      <point x="87" y="1347"/>
      <point x="87" y="1323" type="curve" smooth="yes"/>
      <point x="87" y="1315"/>
      <point x="109" y="1218"/>
      <point x="110" y="1218" type="curve" smooth="yes"/>
      <point x="119" y="1181"/>
      <point x="128" y="1160"/>
      <point x="148" y="1174" type="curve"/>
      <point x="212" y="1223"/>
      <point x="279" y="1253"/>
      <point x="375" y="1253" type="curve" smooth="yes"/>
      <point x="440" y="1253"/>
      <point x="518" y="1206"/>
      <point x="524" y="1058" type="curve" smooth="yes"/>
      <point x="524" y="963"/>
      <point x="488" y="894"/>
      <point x="428" y="851" type="curve" smooth="yes"/>
      <point x="344" y="791"/>
      <point x="308" y="760"/>
      <point x="263" y="699" type="curve"/>
      <point x="252" y="686"/>
      <point x="247" y="668"/>
      <point x="248" y="650" type="curve" smooth="yes"/>
      <point x="248" y="607"/>
      <point x="266" y="583"/>
    </contour>
    <contour>
      <point x="274" y="0" type="curve" smooth="yes"/>
      <point x="413" y="0" type="line" smooth="yes"/>
      <point x="447" y="0"/>
      <point x="471" y="30"/>
      <point x="471" y="73" type="curve" smooth="yes"/>
      <point x="471" y="221" type="line" smooth="yes"/>
      <point x="471" y="263"/>
      <point x="447" y="293"/>
      <point x="413" y="293" type="curve" smooth="yes"/>
      <point x="274" y="293" type="line" smooth="yes"/>
      <point x="240" y="293"/>
      <point x="216" y="263"/>
      <point x="216" y="221" type="curve" smooth="yes"/>
      <point x="216" y="73" type="line" smooth="yes"/>
      <point x="216" y="30"/>
      <point x="240" y="0"/>
    </contour>
  </outline>
</glyph>
<glyph name="at" format="1">
  <advance width="1463"/>
  <unicode hex="0040"/>
  <outline>
    <contour>
      <point x="770" y="-181" type="curve" smooth="yes"/>
      <point x="867" y="-181"/>
      <point x="984" y="-156"/>
      <point x="1059" y="-114" type="curve"/>
      <point x="1095" y="-94"/>
      <point x="1046" y="22"/>
      <point x="1013" y="8" type="curve"/>
      <point x="953" y="-18"/>
      <point x="858" y="-47"/>
      <point x="780" y="-47" type="curve" smooth="yes"/>
      <point x="401" y="-47"/>
      <point x="253" y="304"/>
      <point x="253" y="654" type="curve" smooth="yes"/>
      <point x="253" y="1033"/>
      <point x="425" y="1378"/>
      <point x="763" y="1378" type="curve" smooth="yes"/>
      <point x="1099" y="1378"/>
      <point x="1258" y="1089"/>
      <point x="1258" y="714" type="curve" smooth="yes"/>
      <point x="1258" y="418"/>
      <point x="1199" y="346"/>
      <point x="1163" y="346" type="curve" smooth="yes"/>
      <point x="1128" y="346"/>
      <point x="1098" y="378"/>
      <point x="1098" y="476" type="curve" smooth="yes"/>
      <point x="1098" y="1012" type="line" smooth="yes"/>
      <point x="1098" y="1045"/>
      <point x="1079" y="1072"/>
      <point x="1055" y="1072" type="curve" smooth="yes"/>
      <point x="1045" y="1072" type="line" smooth="yes"/>
      <point x="1019" y="1072"/>
      <point x="1000" y="1060"/>
      <point x="995" y="1022" type="curve"/>
      <point x="983" y="896" type="line" smooth="yes"/>
      <point x="982" y="888"/>
      <point x="981" y="883"/>
      <point x="979" y="883" type="curve" smooth="yes"/>
      <point x="977" y="883"/>
      <point x="974" y="888"/>
      <point x="972" y="896" type="curve" smooth="yes"/>
      <point x="932" y="1018"/>
      <point x="865" y="1118"/>
      <point x="716" y="1118" type="curve" smooth="yes"/>
      <point x="540" y="1118"/>
      <point x="423" y="945"/>
      <point x="423" y="661" type="curve" smooth="yes"/>
      <point x="423" y="361"/>
      <point x="555" y="191"/>
      <point x="733" y="191" type="curve" smooth="yes"/>
      <point x="887" y="191"/>
      <point x="942" y="284"/>
      <point x="981" y="406" type="curve" smooth="yes"/>
      <point x="983" y="415"/>
      <point x="988" y="430"/>
      <point x="993" y="430" type="curve" smooth="yes"/>
      <point x="998" y="430"/>
      <point x="1002" y="413"/>
      <point x="1004" y="392" type="curve" smooth="yes"/>
      <point x="1010" y="294"/>
      <point x="1083" y="224"/>
      <point x="1166" y="224" type="curve" smooth="yes"/>
      <point x="1265" y="224"/>
      <point x="1400" y="361"/>
      <point x="1400" y="714" type="curve" smooth="yes"/>
      <point x="1399" y="1171"/>
      <point x="1176" y="1517"/>
      <point x="760" y="1517" type="curve" smooth="yes"/>
      <point x="348" y="1517"/>
      <point x="99" y="1147"/>
      <point x="99" y="659" type="curve" smooth="yes"/>
      <point x="99" y="197"/>
      <point x="356" y="-181"/>
    </contour>
    <contour>
      <point x="755" y="339" type="curve" smooth="yes"/>
      <point x="622" y="339"/>
      <point x="573" y="494"/>
      <point x="573" y="648" type="curve" smooth="yes"/>
      <point x="573" y="796"/>
      <point x="611" y="961"/>
      <point x="755" y="961" type="curve" smooth="yes"/>
      <point x="865" y="961"/>
      <point x="943" y="855"/>
      <point x="943" y="652" type="curve" smooth="yes"/>
      <point x="943" y="435"/>
      <point x="866" y="339"/>
    </contour>
  </outline>
</glyph>
<glyph name="B" format="1">
  <advance width="918"/>
  <unicode hex="0042"/>
  <outline>
    <contour>
      <point x="148" y="0" type="curve" smooth="yes"/>
      <point x="530" y="0" type="line" smooth="yes"/>
      <point x="707" y="0"/>
      <point x="851" y="96"/>
      <point x="851" y="424" type="curve" smooth="yes"/>
      <point x="851" y="590"/>
      <point x="821" y="695"/>
      <point x="745" y="757" type="curve" smooth="yes"/>
      <point x="740" y="761"/>
      <point x="733" y="766"/>
      <point x="733" y="772" type="curve" smooth="yes"/>
      <point x="733" y="776"/>
      <point x="740" y="782"/>
      <point x="744" y="787" type="curve" smooth="yes"/>
      <point x="797" y="842"/>
      <point x="816" y="929"/>
      <point x="816" y="1040" type="curve" smooth="yes"/>
      <point x="816" y="1339"/>
      <point x="695" y="1438"/>
      <point x="547" y="1438" type="curve" smooth="yes"/>
      <point x="148" y="1438" type="line" smooth="yes"/>
      <point x="133" y="1438"/>
      <point x="121" y="1433"/>
      <point x="121" y="1390" type="curve" smooth="yes"/>
      <point x="121" y="47" type="line" smooth="yes"/>
      <point x="121" y="5"/>
      <point x="133" y="0"/>
    </contour>
    <contour>
      <point x="387" y="192" type="line"/>
      <point x="380" y="192"/>
      <point x="374" y="194"/>
      <point x="374" y="214" type="curve" smooth="yes"/>
      <point x="374" y="633" type="line" smooth="yes"/>
      <point x="374" y="653"/>
      <point x="380" y="660"/>
      <point x="387" y="660" type="curve" smooth="yes"/>
      <point x="489" y="660" type="line" smooth="yes"/>
      <point x="564" y="660"/>
      <point x="607" y="555"/>
      <point x="607" y="429" type="curve" smooth="yes"/>
      <point x="607" y="290"/>
      <point x="541" y="192"/>
      <point x="470" y="192" type="curve" smooth="yes"/>
    </contour>
    <contour>
      <point x="387" y="850" type="line"/>
      <point x="380" y="850"/>
      <point x="374" y="853"/>
      <point x="374" y="873" type="curve" smooth="yes"/>
      <point x="374" y="1215" type="line" smooth="yes"/>
      <point x="374" y="1235"/>
      <point x="380" y="1237"/>
      <point x="387" y="1237" type="curve" smooth="yes"/>
      <point x="467" y="1237" type="line" smooth="yes"/>
      <point x="529" y="1237"/>
      <point x="589" y="1170"/>
      <point x="589" y="1030" type="curve" smooth="yes"/>
      <point x="589" y="926"/>
      <point x="553" y="850"/>
      <point x="496" y="850" type="curve" smooth="yes"/>
    </contour>
  </outline>
</glyph>
<glyph name="D" format="1">
  <advance width="959"/>
  <unicode hex="0044"/>
  <outline>
    <contour>
      <point x="387" y="204" type="curve"/>
      <point x="380" y="204"/>
      <point x="374" y="209"/>
      <point x="374" y="229" type="curve" smooth="yes"/>
      <point x="374" y="1207" type="line" smooth="yes"/>
      <point x="374" y="1227"/>
      <point x="380" y="1234"/>
      <point x="387" y="1234" type="curve" smooth="yes"/>
      <point x="477" y="1234" type="line" smooth="yes"/>
      <point x="551" y="1234"/>
      <point x="620" y="1163"/>
      <point x="620" y="729" type="curve" smooth="yes"/>
      <point x="620" y="286"/>
      <point x="565" y="204"/>
      <point x="466" y="204" type="curve" smooth="yes"/>
      <point x="445" y="204"/>
      <point x="412" y="203"/>
    </contour>
    <contour>
      <point x="148" y="0" type="curve" smooth="yes"/>
      <point x="479" y="0" type="line" smooth="yes"/>
      <point x="721" y="0"/>
      <point x="873" y="24"/>
      <point x="873" y="732" type="curve" smooth="yes"/>
      <point x="873" y="1264"/>
      <point x="737" y="1438"/>
      <point x="518" y="1438" type="curve" smooth="yes"/>
      <point x="148" y="1438" type="line" smooth="yes"/>
      <point x="133" y="1438"/>
      <point x="121" y="1434"/>
      <point x="121" y="1392" type="curve" smooth="yes"/>
      <point x="121" y="47" type="line" smooth="yes"/>
      <point x="121" y="4"/>
      <point x="133" y="0"/>
    </contour>
    <contour>
      <point x="480" y="1438" type="move" name="top"/>
    </contour>
    <contour>
      <point x="480" y="719" type="move" name="center"/>
    </contour>
  </outline>
</glyph>
<glyph name="I" format="1">
  <advance width="495"/>
  <unicode hex="0049"/>
  <outline>
    <contour>
      <point x="148" y="0" type="curve" smooth="yes"/>
      <point x="348" y="0" type="line" smooth="yes"/>
      <point x="362" y="0"/>
      <point x="374" y="4"/>
      <point x="374" y="47" type="curve" smooth="yes"/>
      <point x="374" y="1391" type="line" smooth="yes"/>
      <point x="374" y="1434"/>
      <point x="362" y="1438"/>
      <point x="348" y="1438" type="curve" smooth="yes"/>
      <point x="148" y="1438" type="line" smooth="yes"/>
      <point x="133" y="1438"/>
      <point x="121" y="1434"/>
      <point x="121" y="1391" type="curve" smooth="yes"/>
      <point x="121" y="47" type="line" smooth="yes"/>
      <point x="121" y="4"/>
      <point x="133" y="0"/>
    </contour>
    <contour>
      <point x="248" y="1438" type="move" name="top"/>
    </contour>
    <contour>
      <point x="445" y="10" type="move" name="ogonek"/>
    </contour>
  </outline>
</glyph>
<glyph name="K" format="1">
  <advance width="883"/>
  <unicode hex="004B"/>
  <outline>
    <contour>
      <point x="148" y="0" type="curve" smooth="yes"/>
      <point x="348" y="0" type="line" smooth="yes"/>
      <point x="362" y="0"/>
      <point x="374" y="5"/>
      <point x="374" y="48" type="curve" smooth="yes"/>
      <point x="374" y="658" type="line"/>
      <point x="588" y="48" type="line" smooth="yes"/>
      <point x="598" y="9"/>
      <point x="614" y="0"/>
      <point x="631" y="0" type="curve" smooth="yes"/>
      <point x="829" y="0" type="line" smooth="yes"/>
      <point x="840" y="0"/>
      <point x="851" y="20"/>
      <point x="843" y="47" type="curve" smooth="yes"/>
      <point x="636" y="696" type="line" smooth="yes"/>
      <point x="632" y="709"/>
      <point x="631" y="721"/>
      <point x="631" y="731" type="curve" smooth="yes"/>
      <point x="631" y="755"/>
      <point x="637" y="771"/>
      <point x="640" y="780" type="curve" smooth="yes"/>
      <point x="834" y="1389" type="line" smooth="yes"/>
      <point x="841" y="1414"/>
      <point x="839" y="1438"/>
      <point x="810" y="1438" type="curve" smooth="yes"/>
      <point x="619" y="1438" type="line" smooth="yes"/>
      <point x="603" y="1438"/>
      <point x="586" y="1426"/>
      <point x="576" y="1392" type="curve"/>
      <point x="374" y="713" type="line"/>
      <point x="374" y="1390" type="line" smooth="yes"/>
      <point x="374" y="1433"/>
      <point x="362" y="1438"/>
      <point x="348" y="1438" type="curve" smooth="yes"/>
      <point x="148" y="1438" type="line" smooth="yes"/>
      <point x="133" y="1438"/>
      <point x="121" y="1433"/>
      <point x="121" y="1390" type="curve" smooth="yes"/>
      <point x="121" y="48" type="line" smooth="yes"/>
      <point x="121" y="5"/>
      <point x="133" y="0"/>
    </contour>
    <contour>
      <point x="441" y="1438" type="move" name="top"/>
    </contour>
    <contour>
      <point x="441" y="0" type="move" name="bottom"/>
    </contour>
  </outline>
</glyph>
<glyph name="N" format="1">
  <advance width="1011"/>
  <unicode hex="004E"/>
  <outline>
    <contour>
      <point x="148" y="0" type="curve" smooth="yes"/>
      <point x="314" y="0" type="line" smooth="yes"/>
      <point x="330" y="0"/>
      <point x="341" y="4"/>
      <point x="341" y="47" type="curve" smooth="yes"/>
      <point x="341" y="932" type="line"/>
      <point x="341" y="946"/>
      <point x="346" y="954"/>
      <point x="350" y="944" type="curve"/>
      <point x="671" y="39" type="line" smooth="yes"/>
      <point x="682" y="9"/>
      <point x="701" y="-1"/>
      <point x="716" y="-1" type="curve" smooth="yes"/>
      <point x="865" y="-1" type="line" smooth="yes"/>
      <point x="879" y="-1"/>
      <point x="891" y="2"/>
      <point x="891" y="45" type="curve" smooth="yes"/>
      <point x="891" y="1382" type="line" smooth="yes"/>
      <point x="891" y="1425"/>
      <point x="879" y="1438"/>
      <point x="865" y="1438" type="curve" smooth="yes"/>
      <point x="702" y="1438" type="line" smooth="yes"/>
      <point x="688" y="1438"/>
      <point x="675" y="1425"/>
      <point x="675" y="1382" type="curve" smooth="yes"/>
      <point x="675" y="630" type="line"/>
      <point x="675" y="615"/>
      <point x="669" y="608"/>
      <point x="666" y="617" type="curve"/>
      <point x="406" y="1389" type="line" smooth="yes"/>
      <point x="396" y="1419"/>
      <point x="378" y="1438"/>
      <point x="363" y="1438" type="curve" smooth="yes"/>
      <point x="148" y="1438" type="line" smooth="yes"/>
      <point x="133" y="1438"/>
      <point x="121" y="1425"/>
      <point x="121" y="1382" type="curve" smooth="yes"/>
      <point x="121" y="47" type="line" smooth="yes"/>
      <point x="121" y="4"/>
      <point x="133" y="0"/>
    </contour>
    <contour>
      <point x="506" y="1438" type="move" name="top"/>
    </contour>
    <contour>
      <point x="506" y="0" type="move" name="bottom"/>
    </contour>
  </outline>
</glyph>
<glyph name="S" format="1">
  <advance width="799"/>
  <unicode hex="0053"/>
  <outline>
    <contour>
      <point x="390" y="-16" type="curve" smooth="yes"/>
      <point x="616" y="-16"/>
      <point x="752" y="165"/>
      <point x="752" y="415" type="curve" smooth="yes"/>
      <point x="752" y="607"/>
      <point x="659" y="732"/>
      <point x="550" y="800" type="curve" smooth="yes"/>
      <point x="429" y="876" type="line" smooth="yes"/>
      <point x="347" y="926"/>
      <point x="296" y="981"/>
      <point x="296" y="1073" type="curve" smooth="yes"/>
      <point x="296" y="1158"/>
      <point x="348" y="1237"/>
      <point x="424" y="1237" type="curve" smooth="yes"/>
      <point x="499" y="1237"/>
      <point x="573" y="1202"/>
      <point x="634" y="1130" type="curve" smooth="yes"/>
      <point x="659" y="1098"/>
      <point x="776" y="1247"/>
      <point x="729" y="1310" type="curve"/>
      <point x="639" y="1429"/>
      <point x="520" y="1456"/>
      <point x="412" y="1456" type="curve" smooth="yes"/>
      <point x="210" y="1455"/>
      <point x="80" y="1271"/>
      <point x="80" y="1026" type="curve" smooth="yes"/>
      <point x="80" y="840"/>
      <point x="163" y="737"/>
      <point x="273" y="664" type="curve"/>
      <point x="395" y="583" type="line" smooth="yes"/>
      <point x="477" y="529"/>
      <point x="529" y="470"/>
      <point x="529" y="376" type="curve" smooth="yes"/>
      <point x="529" y="286"/>
      <point x="483" y="206"/>
      <point x="392" y="206" type="curve" smooth="yes"/>
      <point x="313" y="206"/>
      <point x="229" y="264"/>
      <point x="159" y="341" type="curve"/>
      <point x="110" y="392"/>
      <point x="10" y="215"/>
      <point x="45" y="167" type="curve" smooth="yes"/>
      <point x="139" y="32"/>
      <point x="267" y="-16"/>
    </contour>
    <contour>
      <point x="400" y="1438" type="move" name="top"/>
    </contour>
    <contour>
      <point x="400" y="0" type="move" name="bottom"/>
    </contour>
  </outline>
</glyph>
<glyph name="T" format="1">
  <advance width="706"/>
  <unicode hex="0054"/>
  <outline>
    <contour>
      <point x="255" y="0" type="curve" smooth="yes"/>
      <point x="455" y="0" type="line" smooth="yes"/>
      <point x="470" y="0"/>
      <point x="482" y="5"/>
      <point x="482" y="48" type="curve" smooth="yes"/>
      <point x="482" y="1208" type="line" smooth="yes"/>
      <point x="482" y="1228"/>
      <point x="487" y="1233"/>
      <point x="494" y="1233" type="curve" smooth="yes"/>
      <point x="661" y="1233" type="line" smooth="yes"/>
      <point x="675" y="1233"/>
      <point x="687" y="1235"/>
      <point x="687" y="1277" type="curve" smooth="yes"/>
      <point x="687" y="1389" type="line" smooth="yes"/>
      <point x="687" y="1431"/>
      <point x="675" y="1438"/>
      <point x="661" y="1438" type="curve" smooth="yes"/>
      <point x="46" y="1438" type="line" smooth="yes"/>
      <point x="30" y="1438"/>
      <point x="19" y="1431"/>
      <point x="19" y="1389" type="curve" smooth="yes"/>
      <point x="19" y="1277" type="line" smooth="yes"/>
      <point x="19" y="1235"/>
      <point x="30" y="1233"/>
      <point x="46" y="1233" type="curve" smooth="yes"/>
      <point x="216" y="1233" type="line" smooth="yes"/>
      <point x="223" y="1233"/>
      <point x="229" y="1228"/>
      <point x="229" y="1208" type="curve" smooth="yes"/>
      <point x="229" y="48" type="line" smooth="yes"/>
      <point x="229" y="5"/>
      <point x="241" y="0"/>
    </contour>
    <contour>
      <point x="353" y="1438" type="move" name="top"/>
    </contour>
    <contour>
      <point x="353" y="719" type="move" name="center"/>
    </contour>
    <contour>
      <point x="353" y="0" type="move" name="bottom"/>
    </contour>
  </outline>
</glyph>
<glyph name="W" format="1">
  <advance width="1115"/>
  <unicode hex="0057"/>
  <outline>
    <contour>
      <point x="261" y="0" type="curve"/>
      <point x="407" y="0" type="line"/>
      <point x="421" y="3"/>
      <point x="436" y="31"/>
      <point x="441" y="70" type="curve" smooth="yes"/>
      <point x="550" y="855" type="line"/>
      <point x="661" y="71" type="line" smooth="yes"/>
      <point x="666" y="29"/>
      <point x="681" y="0"/>
      <point x="696" y="0" type="curve"/>
      <point x="856" y="0" type="line"/>
      <point x="872" y="0"/>
      <point x="886" y="28"/>
      <point x="892" y="70" type="curve" smooth="yes"/>
      <point x="1068" y="1368" type="line"/>
      <point x="1074" y="1402"/>
      <point x="1066" y="1438"/>
      <point x="1053" y="1438" type="curve" smooth="yes"/>
      <point x="904" y="1438" type="line" smooth="yes"/>
      <point x="888" y="1438"/>
      <point x="874" y="1410"/>
      <point x="868" y="1368" type="curve" smooth="yes"/>
      <point x="775" y="642" type="line"/>
      <point x="673" y="1367" type="line" smooth="yes"/>
      <point x="667" y="1407"/>
      <point x="654" y="1434"/>
      <point x="639" y="1437" type="curve" smooth="yes"/>
      <point x="504" y="1437" type="line" smooth="yes"/>
      <point x="488" y="1437"/>
      <point x="473" y="1410"/>
      <point x="467" y="1368" type="curve" smooth="yes"/>
      <point x="364" y="656" type="line"/>
      <point x="278" y="1366" type="line" smooth="yes"/>
      <point x="272" y="1409"/>
      <point x="258" y="1438"/>
      <point x="242" y="1438" type="curve" smooth="yes"/>
      <point x="67" y="1438" type="line" smooth="yes"/>
      <point x="53" y="1438"/>
      <point x="45" y="1402"/>
      <point x="50" y="1368" type="curve"/>
      <point x="224" y="70" type="line" smooth="yes"/>
      <point x="230" y="28"/>
      <point x="246" y="0"/>
    </contour>
    <contour>
      <point x="557" y="1438" type="move" name="top"/>
    </contour>
  </outline>
</glyph>
<glyph name="bracketleft" format="1">
  <advance width="652"/>
  <unicode hex="005B"/>
  <outline>
    <contour>
      <point x="150" y="-157" type="curve" smooth="yes"/>
      <point x="515" y="-157" type="line" smooth="yes"/>
      <point x="531" y="-157"/>
      <point x="543" y="-143"/>
      <point x="543" y="-100" type="curve" smooth="yes"/>
      <point x="543" y="33" type="line" smooth="yes"/>
      <point x="543" y="76"/>
      <point x="531" y="92"/>
      <point x="515" y="92" type="curve" smooth="yes"/>
      <point x="389" y="92" type="line" smooth="yes"/>
      <point x="382" y="92"/>
      <point x="376" y="107"/>
      <point x="376" y="127" type="curve" smooth="yes"/>
      <point x="376" y="1156" type="line" smooth="yes"/>
      <point x="376" y="1176"/>
      <point x="382" y="1193"/>
      <point x="389" y="1193" type="curve" smooth="yes"/>
      <point x="516" y="1193" type="line" smooth="yes"/>
      <point x="531" y="1193"/>
      <point x="543" y="1197"/>
      <point x="543" y="1240" type="curve" smooth="yes"/>
      <point x="543" y="1394" type="line" smooth="yes"/>
      <point x="543" y="1437"/>
      <point x="531" y="1442"/>
      <point x="515" y="1442" type="curve" smooth="yes"/>
      <point x="150" y="1442" type="line" smooth="yes"/>
      <point x="134" y="1442"/>
      <point x="122" y="1436"/>
      <point x="123" y="1393" type="curve" smooth="yes"/>
      <point x="123" y="-99" type="line" smooth="yes"/>
      <point x="122" y="-142"/>
      <point x="135" y="-157"/>
    </contour>
  </outline>
</glyph>
<glyph name="backslash" format="1">
  <advance width="616"/>
  <unicode hex="005C"/>
  <outline>
    <contour>
      <point x="339" y="-207" type="curve" smooth="yes"/>
      <point x="517" y="-205" type="line" smooth="yes"/>
      <point x="522" y="-205"/>
      <point x="526" y="-187"/>
      <point x="524" y="-170" type="curve" smooth="yes"/>
      <point x="289" y="1612" type="line" smooth="yes"/>
      <point x="287" y="1633"/>
      <point x="280" y="1647"/>
      <point x="273" y="1647" type="curve" smooth="yes"/>
      <point x="96" y="1647" type="line" smooth="yes"/>
      <point x="90" y="1647"/>
      <point x="86" y="1629"/>
      <point x="88" y="1612" type="curve" smooth="yes"/>
      <point x="323" y="-172" type="line" smooth="yes"/>
      <point x="326" y="-193"/>
      <point x="332" y="-207"/>
    </contour>
  </outline>
</glyph>
<glyph name="bracketright" format="1">
  <advance width="653"/>
  <unicode hex="005D"/>
  <outline>
    <contour>
      <point x="138" y="-157" type="curve" smooth="yes"/>
      <point x="503" y="-157" type="line" smooth="yes"/>
      <point x="519" y="-157"/>
      <point x="531" y="-152"/>
      <point x="530" y="-109" type="curve" smooth="yes"/>
      <point x="530" y="1384" type="line" smooth="yes"/>
      <point x="531" y="1427"/>
      <point x="518" y="1442"/>
      <point x="503" y="1442" type="curve" smooth="yes"/>
      <point x="138" y="1442" type="line" smooth="yes"/>
      <point x="122" y="1442"/>
      <point x="110" y="1428"/>
      <point x="110" y="1385" type="curve" smooth="yes"/>
      <point x="110" y="1250" type="line" smooth="yes"/>
      <point x="110" y="1207"/>
      <point x="122" y="1191"/>
      <point x="138" y="1191" type="curve" smooth="yes"/>
      <point x="264" y="1191" type="line" smooth="yes"/>
      <point x="271" y="1191"/>
      <point x="277" y="1176"/>
      <point x="277" y="1156" type="curve" smooth="yes"/>
      <point x="277" y="131" type="line" smooth="yes"/>
      <point x="277" y="111"/>
      <point x="271" y="95"/>
      <point x="264" y="95" type="curve" smooth="yes"/>
      <point x="137" y="95" type="line" smooth="yes"/>
      <point x="122" y="95"/>
      <point x="110" y="90"/>
      <point x="110" y="47" type="curve" smooth="yes"/>
      <point x="110" y="-110" type="line" smooth="yes"/>
      <point x="110" y="-153"/>
      <point x="122" y="-157"/>
    </contour>
  </outline>
</glyph>
<glyph name="asciicircum" format="1">
  <advance width="1030"/>
  <unicode hex="005E"/>
  <outline>
    <contour>
      <point x="112" y="420" type="curve" smooth="yes"/>
      <point x="219" y="420" type="line" smooth="yes"/>
      <point x="255" y="420"/>
      <point x="274" y="434"/>
      <point x="290" y="489" type="curve" smooth="yes"/>
      <point x="492" y="1103" type="line" smooth="yes"/>
      <point x="499" y="1129"/>
      <point x="504" y="1134"/>
      <point x="513" y="1134" type="curve" smooth="yes"/>
      <point x="522" y="1134"/>
      <point x="527" y="1129"/>
      <point x="534" y="1103" type="curve" smooth="yes"/>
      <point x="745" y="489" type="line" smooth="yes"/>
      <point x="761" y="434"/>
      <point x="784" y="420"/>
      <point x="810" y="420" type="curve" smooth="yes"/>
      <point x="918" y="420" type="line" smooth="yes"/>
      <point x="954" y="420"/>
      <point x="950" y="458"/>
      <point x="939" y="488" type="curve" smooth="yes"/>
      <point x="622" y="1358" type="line"/>
      <point x="604" y="1401"/>
      <point x="592" y="1426"/>
      <point x="545" y="1426" type="curve" smooth="yes"/>
      <point x="482" y="1426" type="line" smooth="yes"/>
      <point x="435" y="1426"/>
      <point x="420" y="1401"/>
      <point x="403" y="1359" type="curve"/>
      <point x="92" y="487" type="line" smooth="yes"/>
      <point x="80" y="455"/>
      <point x="77" y="420"/>
    </contour>
  </outline>
</glyph>
<glyph name="b" format="1">
  <advance width="802"/>
  <unicode hex="0062"/>
  <outline>
    <contour>
      <point x="464" y="-10" type="curve" smooth="yes"/>
      <point x="593" y="-10"/>
      <point x="721" y="132"/>
      <point x="721" y="498" type="curve" smooth="yes"/>
      <point x="721" y="886"/>
      <point x="596" y="1017"/>
      <point x="479" y="1017" type="curve" smooth="yes"/>
      <point x="417" y="1017"/>
      <point x="361" y="984"/>
      <point x="324" y="900" type="curve"/>
      <point x="322" y="896"/>
      <point x="318" y="892"/>
      <point x="315" y="892" type="curve" smooth="yes"/>
      <point x="312" y="892"/>
      <point x="308" y="897"/>
      <point x="308" y="911" type="curve" smooth="yes"/>
      <point x="308" y="1347" type="line" smooth="yes"/>
      <point x="308" y="1390"/>
      <point x="296" y="1424"/>
      <point x="282" y="1424" type="curve" smooth="yes"/>
      <point x="134" y="1424" type="line" smooth="yes"/>
      <point x="119" y="1424"/>
      <point x="107" y="1390"/>
      <point x="107" y="1347" type="curve" smooth="yes"/>
      <point x="107" y="66" type="line" smooth="yes"/>
      <point x="107" y="23"/>
      <point x="114" y="0"/>
      <point x="128" y="0" type="curve" smooth="yes"/>
      <point x="167" y="0" type="line" smooth="yes"/>
      <point x="181" y="0"/>
      <point x="188" y="25"/>
      <point x="196" y="62" type="curve" smooth="yes"/>
      <point x="214" y="135"/>
      <point x="222" y="156"/>
      <point x="226" y="180" type="curve" smooth="yes"/>
      <point x="227" y="185"/>
      <point x="231" y="187"/>
      <point x="234" y="187" type="curve" smooth="yes"/>
      <point x="236" y="187"/>
      <point x="238" y="186"/>
      <point x="239" y="183" type="curve" smooth="yes"/>
      <point x="286" y="21"/>
      <point x="376" y="-10"/>
    </contour>
    <contour>
      <point x="420" y="159" type="curve" smooth="yes"/>
      <point x="351" y="159"/>
      <point x="308" y="312"/>
      <point x="308" y="514" type="curve" smooth="yes"/>
      <point x="308" y="713"/>
      <point x="345" y="848"/>
      <point x="413" y="848" type="curve" smooth="yes"/>
      <point x="479" y="848"/>
      <point x="512" y="707"/>
      <point x="512" y="514" type="curve" smooth="yes"/>
      <point x="512" y="281"/>
      <point x="485" y="159"/>
    </contour>
  </outline>
</glyph>
<glyph name="c" format="1">
  <advance width="618"/>
  <unicode hex="0063"/>
  <outline>
    <contour>
      <point x="422" y="-10" type="curve" smooth="yes"/>
      <point x="468" y="-10"/>
      <point x="513" y="-1"/>
      <point x="542" y="6" type="curve"/>
      <point x="550" y="8"/>
      <point x="557" y="18"/>
      <point x="557" y="31" type="curve"/>
      <point x="557" y="158" type="line"/>
      <point x="557" y="170"/>
      <point x="550" y="182"/>
      <point x="542" y="184" type="curve"/>
      <point x="520" y="178"/>
      <point x="485" y="170"/>
      <point x="452" y="170" type="curve" smooth="yes"/>
      <point x="362" y="170"/>
      <point x="300" y="173"/>
      <point x="300" y="510" type="curve" smooth="yes"/>
      <point x="300" y="815"/>
      <point x="371" y="838"/>
      <point x="453" y="838" type="curve" smooth="yes"/>
      <point x="490" y="838"/>
      <point x="519" y="828"/>
      <point x="542" y="820" type="curve"/>
      <point x="550" y="817"/>
      <point x="557" y="826"/>
      <point x="556" y="839" type="curve"/>
      <point x="556" y="976" type="line"/>
      <point x="556" y="983"/>
      <point x="550" y="991"/>
      <point x="542" y="992" type="curve"/>
      <point x="507" y="1003"/>
      <point x="450" y="1017"/>
      <point x="397" y="1017" type="curve" smooth="yes"/>
      <point x="235" y="1017"/>
      <point x="82" y="923"/>
      <point x="82" y="510" type="curve" smooth="yes"/>
      <point x="82" y="47"/>
      <point x="252" y="-10"/>
    </contour>
    <contour>
      <point x="309" y="1006" type="move" name="top"/>
    </contour>
    <contour>
      <point x="309" y="0" type="move" name="bottom"/>
    </contour>
  </outline>
</glyph>
<glyph name="d" format="1">
  <advance width="836"/>
  <unicode hex="0064"/>
  <outline>
    <contour>
      <point x="352" y="-10" type="curve" smooth="yes"/>
      <point x="442" y="-10"/>
      <point x="539" y="13"/>
      <point x="576" y="201" type="curve" smooth="yes"/>
      <point x="579" y="208"/>
      <point x="581" y="211"/>
      <point x="584" y="211" type="curve"/>
      <point x="587" y="211"/>
      <point x="590" y="207"/>
      <point x="591" y="198" type="curve" smooth="yes"/>
      <point x="591" y="196"/>
      <point x="621" y="66"/>
      <point x="621" y="63" type="curve" smooth="yes"/>
      <point x="629" y="25"/>
      <point x="645" y="0"/>
      <point x="661" y="0" type="curve" smooth="yes"/>
      <point x="702" y="0" type="line" smooth="yes"/>
      <point x="717" y="0"/>
      <point x="729" y="24"/>
      <point x="729" y="67" type="curve" smooth="yes"/>
      <point x="729" y="1366" type="line" smooth="yes"/>
      <point x="729" y="1409"/>
      <point x="717" y="1424"/>
      <point x="702" y="1424" type="curve" smooth="yes"/>
      <point x="536" y="1424" type="line" smooth="yes"/>
      <point x="521" y="1424"/>
      <point x="510" y="1409"/>
      <point x="510" y="1366" type="curve" smooth="yes"/>
      <point x="510" y="907" type="line"/>
      <point x="510" y="897"/>
      <point x="507" y="893"/>
      <point x="504" y="893" type="curve"/>
      <point x="502" y="893"/>
      <point x="498" y="897"/>
      <point x="495" y="902" type="curve" smooth="yes"/>
      <point x="459" y="985"/>
      <point x="410" y="1017"/>
      <point x="340" y="1017" type="curve" smooth="yes"/>
      <point x="221" y="1017"/>
      <point x="80" y="917"/>
      <point x="80" y="498" type="curve" smooth="yes"/>
      <point x="80" y="81"/>
      <point x="225" y="-10"/>
    </contour>
    <contour>
      <point x="406" y="159" type="curve" smooth="yes"/>
      <point x="339" y="159"/>
      <point x="299" y="207"/>
      <point x="299" y="514" type="curve" smooth="yes"/>
      <point x="299" y="785"/>
      <point x="340" y="848"/>
      <point x="405" y="848" type="curve" smooth="yes"/>
      <point x="474" y="848"/>
      <point x="509" y="763"/>
      <point x="509" y="514" type="curve" smooth="yes"/>
      <point x="509" y="237"/>
      <point x="474" y="159"/>
    </contour>
    <contour>
      <point x="418" y="503" type="move" name="center"/>
    </contour>
  </outline>
</glyph>
<glyph name="e" format="1">
  <advance width="717"/>
  <unicode hex="0065"/>
  <outline>
    <contour>
      <point x="401" y="-10" type="curve" smooth="yes"/>
      <point x="573" y="-10"/>
      <point x="648" y="95"/>
      <point x="648" y="235" type="curve" smooth="yes"/>
      <point x="648" y="265"/>
      <point x="644" y="287"/>
      <point x="642" y="297" type="curve" smooth="yes"/>
      <point x="640" y="307"/>
      <point x="634" y="313"/>
      <point x="619" y="313" type="curve" smooth="yes"/>
      <point x="519" y="313" type="line" smooth="yes"/>
      <point x="507" y="313"/>
      <point x="499" y="307"/>
      <point x="497" y="290" type="curve" smooth="yes"/>
      <point x="491" y="235"/>
      <point x="481" y="159"/>
      <point x="406" y="159" type="curve" smooth="yes"/>
      <point x="345" y="159"/>
      <point x="292" y="205"/>
      <point x="292" y="424" type="curve" smooth="yes"/>
      <point x="292" y="439"/>
      <point x="295" y="457"/>
      <point x="301" y="457" type="curve" smooth="yes"/>
      <point x="640" y="457" type="line" smooth="yes"/>
      <point x="655" y="457"/>
      <point x="655" y="501"/>
      <point x="655" y="522" type="curve"/>
      <point x="655" y="933"/>
      <point x="511" y="1018"/>
      <point x="388" y="1018" type="curve" smooth="yes"/>
      <point x="253" y="1018"/>
      <point x="82" y="960"/>
      <point x="82" y="504" type="curve" smooth="yes"/>
      <point x="82" y="40"/>
      <point x="265" y="-10"/>
    </contour>
    <contour>
      <point x="297" y="587" type="line"/>
      <point x="292" y="587"/>
      <point x="292" y="617"/>
      <point x="292" y="631" type="curve" smooth="yes"/>
      <point x="295" y="770"/>
      <point x="336" y="849"/>
      <point x="386" y="849" type="curve" smooth="yes"/>
      <point x="437" y="849"/>
      <point x="471" y="763"/>
      <point x="474" y="623" type="curve"/>
      <point x="474" y="610"/>
      <point x="474" y="587"/>
      <point x="470" y="587" type="curve"/>
    </contour>
    <contour>
      <point x="359" y="1006" type="move" name="top"/>
    </contour>
    <contour>
      <point x="646" y="10" type="move" name="ogonek"/>
    </contour>
    <contour>
      <point x="359" y="0" type="move" name="bottom"/>
    </contour>
  </outline>
</glyph>
<glyph name="h" format="1">
  <advance width="853"/>
  <unicode hex="0068"/>
  <outline>
    <contour>
      <point x="135" y="0" type="curve" smooth="yes"/>
      <point x="307" y="0" type="line" smooth="yes"/>
      <point x="321" y="0"/>
      <point x="333" y="4"/>
      <point x="333" y="47" type="curve" smooth="yes"/>
      <point x="333" y="576" type="line" smooth="yes"/>
      <point x="333" y="758"/>
      <point x="377" y="847"/>
      <point x="446" y="847" type="curve" smooth="yes"/>
      <point x="511" y="847"/>
      <point x="535" y="770"/>
      <point x="535" y="577" type="curve" smooth="yes"/>
      <point x="535" y="47" type="line" smooth="yes"/>
      <point x="535" y="4"/>
      <point x="546" y="0"/>
      <point x="561" y="0" type="curve" smooth="yes"/>
      <point x="733" y="0" type="line" smooth="yes"/>
      <point x="748" y="0"/>
      <point x="759" y="4"/>
      <point x="759" y="47" type="curve" smooth="yes"/>
      <point x="759" y="563" type="line" smooth="yes"/>
      <point x="759" y="914"/>
      <point x="658" y="1017"/>
      <point x="536" y="1017" type="curve" smooth="yes"/>
      <point x="476" y="1017"/>
      <point x="391" y="984"/>
      <point x="346" y="892" type="curve" smooth="yes"/>
      <point x="344" y="888"/>
      <point x="341" y="885"/>
      <point x="339" y="885" type="curve" smooth="yes"/>
      <point x="336" y="885"/>
      <point x="333" y="890"/>
      <point x="333" y="905" type="curve" smooth="yes"/>
      <point x="333" y="1385" type="line" smooth="yes"/>
      <point x="333" y="1428"/>
      <point x="321" y="1436"/>
      <point x="307" y="1436" type="curve" smooth="yes"/>
      <point x="135" y="1436" type="line" smooth="yes"/>
      <point x="120" y="1436"/>
      <point x="108" y="1428"/>
      <point x="108" y="1385" type="curve" smooth="yes"/>
      <point x="108" y="47" type="line" smooth="yes"/>
      <point x="108" y="4"/>
      <point x="120" y="0"/>
    </contour>
    <contour>
      <point x="426" y="1006" type="move" name="top"/>
    </contour>
    <contour>
      <point x="426" y="503" type="move" name="center"/>
    </contour>
  </outline>
</glyph>
<glyph name="i" format="1">
  <advance width="401"/>
  <unicode hex="0069"/>
  <outline>
    <contour>
      <point x="135" y="0" type="curve" smooth="yes"/>
      <point x="284" y="0" type="line" smooth="yes"/>
      <point x="298" y="0"/>
      <point x="309" y="33"/>
      <point x="309" y="76" type="curve" smooth="yes"/>
      <point x="309" y="931" type="line" smooth="yes"/>
      <point x="309" y="974"/>
      <point x="298" y="1006"/>
      <point x="284" y="1006" type="curve" smooth="yes"/>
      <point x="135" y="1006" type="line" smooth="yes"/>
      <point x="120" y="1006"/>
      <point x="109" y="974"/>
      <point x="109" y="931" type="curve" smooth="yes"/>
      <point x="109" y="76" type="line" smooth="yes"/>
      <point x="109" y="33"/>
      <point x="120" y="0"/>
    </contour>
    <contour>
      <point x="134" y="1153" type="curve" smooth="yes"/>
      <point x="284" y="1153" type="line" smooth="yes"/>
      <point x="298" y="1153"/>
      <point x="310" y="1167"/>
      <point x="310" y="1210" type="curve" smooth="yes"/>
      <point x="310" y="1376" type="line" smooth="yes"/>
      <point x="310" y="1419"/>
      <point x="298" y="1432"/>
      <point x="284" y="1432" type="curve" smooth="yes"/>
      <point x="134" y="1432" type="line" smooth="yes"/>
      <point x="119" y="1432"/>
      <point x="108" y="1419"/>
      <point x="108" y="1376" type="curve" smooth="yes"/>
      <point x="108" y="1210" type="line" smooth="yes"/>
      <point x="108" y="1167"/>
      <point x="119" y="1153"/>
    </contour>
  </outline>
</glyph>
<glyph name="l" format="1">
  <advance width="402"/>
  <unicode hex="006C"/>
  <outline>
    <contour>
      <point x="137" y="0" type="curve" smooth="yes"/>
      <point x="286" y="0" type="line" smooth="yes"/>
      <point x="300" y="0"/>
      <point x="311" y="5"/>
      <point x="311" y="48" type="curve" smooth="yes"/>
      <point x="311" y="1416" type="line" smooth="yes"/>
      <point x="311" y="1459"/>
      <point x="300" y="1473"/>
      <point x="286" y="1473" type="curve" smooth="yes"/>
      <point x="137" y="1473" type="line" smooth="yes"/>
      <point x="122" y="1473"/>
      <point x="110" y="1459"/>
      <point x="110" y="1416" type="curve" smooth="yes"/>
      <point x="110" y="48" type="line" smooth="yes"/>
      <point x="110" y="5"/>
      <point x="122" y="0"/>
    </contour>
    <contour>
      <point x="201" y="1006" type="move" name="top"/>
    </contour>
    <contour>
      <point x="382" y="1006" type="move" name="topright"/>
    </contour>
    <contour>
      <point x="201" y="0" type="move" name="bottom"/>
    </contour>
  </outline>
</glyph>
<glyph name="m" format="1">
  <advance width="1144"/>
  <unicode hex="006D"/>
  <outline>
    <contour>
      <point x="134" y="0" type="curve" smooth="yes"/>
      <point x="290" y="0" type="line" smooth="yes"/>
      <point x="304" y="0"/>
      <point x="316" y="33"/>
      <point x="316" y="76" type="curve" smooth="yes"/>
      <point x="316" y="556" type="line" smooth="yes"/>
      <point x="316" y="739"/>
      <point x="328" y="848"/>
      <point x="401" y="848" type="curve" smooth="yes"/>
      <point x="451" y="848"/>
      <point x="478" y="800"/>
      <point x="478" y="581" type="curve" smooth="yes"/>
      <point x="478" y="76" type="line" smooth="yes"/>
      <point x="478" y="33"/>
      <point x="489" y="0"/>
      <point x="505" y="0" type="curve" smooth="yes"/>
      <point x="657" y="0" type="line" smooth="yes"/>
      <point x="672" y="0"/>
      <point x="683" y="33"/>
      <point x="683" y="76" type="curve" smooth="yes"/>
      <point x="683" y="572" type="line" smooth="yes"/>
      <point x="683" y="831"/>
      <point x="730" y="848"/>
      <point x="769" y="848" type="curve" smooth="yes"/>
      <point x="824" y="848"/>
      <point x="845" y="803"/>
      <point x="845" y="600" type="curve" smooth="yes"/>
      <point x="845" y="76" type="line" smooth="yes"/>
      <point x="845" y="33"/>
      <point x="856" y="0"/>
      <point x="871" y="0" type="curve" smooth="yes"/>
      <point x="1025" y="0" type="line" smooth="yes"/>
      <point x="1040" y="0"/>
      <point x="1051" y="33"/>
      <point x="1051" y="76" type="curve" smooth="yes"/>
      <point x="1051" y="599" type="line" smooth="yes"/>
      <point x="1051" y="961"/>
      <point x="948" y="1017"/>
      <point x="828" y="1017" type="curve" smooth="yes"/>
      <point x="765" y="1017"/>
      <point x="677" y="963"/>
      <point x="644" y="844" type="curve" smooth="yes"/>
      <point x="642" y="837"/>
      <point x="639" y="835"/>
      <point x="635" y="835" type="curve" smooth="yes"/>
      <point x="632" y="835"/>
      <point x="629" y="837"/>
      <point x="627" y="844" type="curve" smooth="yes"/>
      <point x="591" y="964"/>
      <point x="519" y="1017"/>
      <point x="449" y="1017" type="curve" smooth="yes"/>
      <point x="374" y="1017"/>
      <point x="300" y="981"/>
      <point x="260" y="821" type="curve" smooth="yes"/>
      <point x="258" y="813"/>
      <point x="256" y="809"/>
      <point x="253" y="809" type="curve" smooth="yes"/>
      <point x="250" y="809"/>
      <point x="247" y="813"/>
      <point x="245" y="821" type="curve" smooth="yes"/>
      <point x="222" y="943" type="line"/>
      <point x="213" y="982"/>
      <point x="197" y="1006"/>
      <point x="182" y="1006" type="curve" smooth="yes"/>
      <point x="134" y="1006" type="line" smooth="yes"/>
      <point x="120" y="1006"/>
      <point x="108" y="973"/>
      <point x="108" y="930" type="curve" smooth="yes"/>
      <point x="108" y="76" type="line" smooth="yes"/>
      <point x="108" y="33"/>
      <point x="120" y="0"/>
    </contour>
  </outline>
</glyph>
<glyph name="n" format="1">
  <advance width="858"/>
  <unicode hex="006E"/>
  <outline>
    <contour>
      <point x="134" y="0" type="curve" smooth="yes"/>
      <point x="307" y="0" type="line" smooth="yes"/>
      <point x="321" y="0"/>
      <point x="333" y="4"/>
      <point x="333" y="47" type="curve" smooth="yes"/>
      <point x="333" y="581" type="line" smooth="yes"/>
      <point x="333" y="744"/>
      <point x="388" y="848"/>
      <point x="458" y="848" type="curve" smooth="yes"/>
      <point x="522" y="848"/>
      <point x="540" y="746"/>
      <point x="540" y="582" type="curve" smooth="yes"/>
      <point x="540" y="47" type="line" smooth="yes"/>
      <point x="540" y="4"/>
      <point x="550" y="0"/>
      <point x="565" y="0" type="curve" smooth="yes"/>
      <point x="738" y="0" type="line" smooth="yes"/>
      <point x="753" y="0"/>
      <point x="764" y="4"/>
      <point x="764" y="47" type="curve" smooth="yes"/>
      <point x="764" y="559" type="line" smooth="yes"/>
      <point x="764" y="923"/>
      <point x="666" y="1017"/>
      <point x="514" y="1017" type="curve" smooth="yes"/>
      <point x="432" y="1017"/>
      <point x="327" y="1000"/>
      <point x="274" y="841" type="curve" smooth="yes"/>
      <point x="273" y="837"/>
      <point x="271" y="834"/>
      <point x="268" y="834" type="curve" smooth="yes"/>
      <point x="265" y="834"/>
      <point x="262" y="837"/>
      <point x="260" y="843" type="curve" smooth="yes"/>
      <point x="235" y="962" type="line"/>
      <point x="226" y="1001"/>
      <point x="209" y="1006"/>
      <point x="194" y="1006" type="curve" smooth="yes"/>
      <point x="134" y="1006" type="line" smooth="yes"/>
      <point x="120" y="1006"/>
      <point x="108" y="992"/>
      <point x="108" y="949" type="curve" smooth="yes"/>
      <point x="108" y="47" type="line" smooth="yes"/>
      <point x="108" y="4"/>
      <point x="120" y="0"/>
    </contour>
    <contour>
      <point x="429" y="1006" type="move" name="top"/>
    </contour>
    <contour>
      <point x="429" y="0" type="move" name="bottom"/>
    </contour>
  </outline>
</glyph>
<glyph name="o" format="1">
  <advance width="812"/>
  <unicode hex="006F"/>
  <outline>
    <contour>
      <point x="406" y="159" type="curve" smooth="yes"/>
      <point x="339" y="159"/>
      <point x="301" y="204"/>
      <point x="301" y="508" type="curve" smooth="yes"/>
      <point x="301" y="789"/>
      <point x="338" y="848"/>
      <point x="406" y="848" type="curve" smooth="yes"/>
      <point x="475" y="848"/>
      <point x="511" y="789"/>
      <point x="511" y="508" type="curve" smooth="yes"/>
      <point x="511" y="204"/>
      <point x="473" y="159"/>
    </contour>
    <contour>
      <point x="406" y="-10" type="curve" smooth="yes"/>
      <point x="538" y="-10"/>
      <point x="730" y="3"/>
      <point x="730" y="508" type="curve" smooth="yes"/>
      <point x="730" y="1003"/>
      <point x="526" y="1017"/>
      <point x="406" y="1017" type="curve" smooth="yes"/>
      <point x="287" y="1017"/>
      <point x="82" y="1003"/>
      <point x="82" y="508" type="curve" smooth="yes"/>
      <point x="82" y="3"/>
      <point x="275" y="-10"/>
    </contour>
    <contour>
      <point x="406" y="1006" type="move" name="top"/>
    </contour>
  </outline>
</glyph>
<glyph name="p" format="1">
  <advance width="823"/>
  <unicode hex="0070"/>
  <outline>
    <contour>
      <point x="131" y="-305" type="curve" smooth="yes"/>
      <point x="285" y="-305" type="line" smooth="yes"/>
      <point x="299" y="-305"/>
      <point x="309" y="-276"/>
      <point x="309" y="-233" type="curve" smooth="yes"/>
      <point x="309" y="110" type="line" smooth="yes"/>
      <point x="309" y="121"/>
      <point x="313" y="125"/>
      <point x="317" y="125" type="curve" smooth="yes"/>
      <point x="320" y="125"/>
      <point x="324" y="123"/>
      <point x="325" y="119" type="curve" smooth="yes"/>
      <point x="357" y="34"/>
      <point x="423" y="-10"/>
      <point x="484" y="-10" type="curve" smooth="yes"/>
      <point x="631" y="-10"/>
      <point x="741" y="123"/>
      <point x="741" y="512" type="curve" smooth="yes"/>
      <point x="741" y="878"/>
      <point x="605" y="1016"/>
      <point x="474" y="1016" type="curve" smooth="yes"/>
      <point x="392" y="1016"/>
      <point x="291" y="968"/>
      <point x="253" y="805" type="curve" smooth="yes"/>
      <point x="251" y="798"/>
      <point x="249" y="795"/>
      <point x="246" y="795" type="curve" smooth="yes"/>
      <point x="244" y="795"/>
      <point x="241" y="798"/>
      <point x="239" y="806" type="curve" smooth="yes"/>
      <point x="239" y="808"/>
      <point x="211" y="939"/>
      <point x="210" y="941" type="curve" smooth="yes"/>
      <point x="202" y="981"/>
      <point x="185" y="1005"/>
      <point x="170" y="1005" type="curve" smooth="yes"/>
      <point x="134" y="1005" type="line" smooth="yes"/>
      <point x="120" y="1005"/>
      <point x="108" y="972"/>
      <point x="108" y="929" type="curve" smooth="yes"/>
      <point x="108" y="-233" type="line" smooth="yes"/>
      <point x="108" y="-276"/>
      <point x="117" y="-305"/>
    </contour>
    <contour>
      <point x="420" y="159" type="curve" smooth="yes"/>
      <point x="350" y="159"/>
      <point x="309" y="267"/>
      <point x="309" y="497" type="curve" smooth="yes"/>
      <point x="309" y="723"/>
      <point x="349" y="847"/>
      <point x="419" y="847" type="curve" smooth="yes"/>
      <point x="484" y="847"/>
      <point x="522" y="717"/>
      <point x="522" y="497" type="curve" smooth="yes"/>
      <point x="522" y="266"/>
      <point x="485" y="159"/>
    </contour>
  </outline>
</glyph>
<glyph name="r" format="1">
  <advance width="540"/>
  <unicode hex="0072"/>
  <outline>
    <contour>
      <point x="134" y="0" type="curve" smooth="yes"/>
      <point x="283" y="0" type="line" smooth="yes"/>
      <point x="297" y="0"/>
      <point x="309" y="33"/>
      <point x="309" y="76" type="curve" smooth="yes"/>
      <point x="309" y="495" type="line" smooth="yes"/>
      <point x="309" y="599"/>
      <point x="321" y="735"/>
      <point x="407" y="768" type="curve" smooth="yes"/>
      <point x="421" y="774"/>
      <point x="472" y="778"/>
      <point x="473" y="778" type="curve" smooth="yes"/>
      <point x="486" y="778"/>
      <point x="489" y="782"/>
      <point x="489" y="814" type="curve" smooth="yes"/>
      <point x="489" y="957" type="line" smooth="yes"/>
      <point x="489" y="992"/>
      <point x="481" y="1018"/>
      <point x="436" y="1018" type="curve" smooth="yes"/>
      <point x="419" y="1018" type="line" smooth="yes"/>
      <point x="367" y="1016"/>
      <point x="303" y="979"/>
      <point x="254" y="809" type="curve" smooth="yes"/>
      <point x="253" y="802"/>
      <point x="251" y="798"/>
      <point x="248" y="798" type="curve" smooth="yes"/>
      <point x="245" y="798"/>
      <point x="242" y="802"/>
      <point x="240" y="810" type="curve" smooth="yes"/>
      <point x="211" y="942" type="line"/>
      <point x="202" y="982"/>
      <point x="196" y="1006"/>
      <point x="180" y="1006" type="curve" smooth="yes"/>
      <point x="127" y="1006" type="line" smooth="yes"/>
      <point x="113" y="1006"/>
      <point x="108" y="972"/>
      <point x="108" y="929" type="curve" smooth="yes"/>
      <point x="108" y="76" type="line" smooth="yes"/>
      <point x="108" y="33"/>
      <point x="120" y="0"/>
    </contour>
    <contour>
      <point x="270" y="1006" type="move" name="top"/>
    </contour>
    <contour>
      <point x="270" y="0" type="move" name="bottom"/>
    </contour>
  </outline>
</glyph>
<glyph name="s" format="1">
  <advance width="620"/>
  <unicode hex="0073"/>
  <outline>
    <contour>
      <point x="298" y="-10" type="curve" smooth="yes"/>
      <point x="471" y="-10"/>
      <point x="569" y="89"/>
      <point x="569" y="265" type="curve" smooth="yes"/>
      <point x="569" y="445"/>
      <point x="486" y="529"/>
      <point x="381" y="598" type="curve" smooth="yes"/>
      <point x="315" y="642"/>
      <point x="259" y="683"/>
      <point x="259" y="750" type="curve" smooth="yes"/>
      <point x="259" y="801"/>
      <point x="289" y="839"/>
      <point x="342" y="839" type="curve" smooth="yes"/>
      <point x="388" y="839"/>
      <point x="438" y="806"/>
      <point x="483" y="757" type="curve"/>
      <point x="559" y="905" type="line"/>
      <point x="502" y="968"/>
      <point x="424" y="1017"/>
      <point x="324" y="1017" type="curve" smooth="yes"/>
      <point x="172" y="1017"/>
      <point x="73" y="893"/>
      <point x="73" y="734" type="curve" smooth="yes"/>
      <point x="73" y="572"/>
      <point x="139" y="506"/>
      <point x="250" y="425" type="curve" smooth="yes"/>
      <point x="347" y="354"/>
      <point x="384" y="326"/>
      <point x="384" y="267" type="curve" smooth="yes"/>
      <point x="384" y="213"/>
      <point x="358" y="159"/>
      <point x="289" y="159" type="curve" smooth="yes"/>
      <point x="232" y="159"/>
      <point x="167" y="196"/>
      <point x="108" y="262" type="curve"/>
      <point x="37" y="122" type="line"/>
      <point x="104" y="41"/>
      <point x="210" y="-10"/>
    </contour>
    <contour>
      <point x="310" y="1006" type="move" name="top"/>
    </contour>
    <contour>
      <point x="310" y="0" type="move" name="bottom"/>
    </contour>
  </outline>
</glyph>
<glyph name="t" format="1">
  <advance width="571"/>
  <unicode hex="0074"/>
  <outline>
    <contour>
      <point x="396" y="-1" type="curve" smooth="yes"/>
      <point x="508" y="-1" type="line" smooth="yes"/>
      <point x="525" y="-1"/>
      <point x="538" y="8"/>
      <point x="538" y="48" type="curve" smooth="yes"/>
      <point x="538" y="120" type="line" smooth="yes"/>
      <point x="538" y="159"/>
      <point x="528" y="168"/>
      <point x="513" y="168" type="curve" smooth="yes"/>
      <point x="439" y="168" type="line" smooth="yes"/>
      <point x="393" y="168"/>
      <point x="344" y="186"/>
      <point x="344" y="328" type="curve" smooth="yes"/>
      <point x="344" y="796" type="line" smooth="yes"/>
      <point x="344" y="815"/>
      <point x="349" y="817"/>
      <point x="357" y="817" type="curve" smooth="yes"/>
      <point x="484" y="817" type="line" smooth="yes"/>
      <point x="498" y="817"/>
      <point x="510" y="831"/>
      <point x="510" y="873" type="curve" smooth="yes"/>
      <point x="510" y="950" type="line" smooth="yes"/>
      <point x="510" y="993"/>
      <point x="498" y="1006"/>
      <point x="484" y="1006" type="curve" smooth="yes"/>
      <point x="357" y="1006" type="line" smooth="yes"/>
      <point x="349" y="1006"/>
      <point x="344" y="1013"/>
      <point x="344" y="1033" type="curve" smooth="yes"/>
      <point x="344" y="1419" type="line" smooth="yes"/>
      <point x="344" y="1462"/>
      <point x="333" y="1475"/>
      <point x="318" y="1475" type="curve" smooth="yes"/>
      <point x="181" y="1475" type="line" smooth="yes"/>
      <point x="166" y="1475"/>
      <point x="155" y="1461"/>
      <point x="153" y="1419" type="curve" smooth="yes"/>
      <point x="133" y="1033" type="line" smooth="yes"/>
      <point x="133" y="1013"/>
      <point x="128" y="1006"/>
      <point x="121" y="1006" type="curve" smooth="yes"/>
      <point x="62" y="1006" type="line" smooth="yes"/>
      <point x="48" y="1006"/>
      <point x="36" y="993"/>
      <point x="36" y="950" type="curve" smooth="yes"/>
      <point x="36" y="873" type="line" smooth="yes"/>
      <point x="36" y="831"/>
      <point x="48" y="817"/>
      <point x="62" y="817" type="curve" smooth="yes"/>
      <point x="121" y="817" type="line" smooth="yes"/>
      <point x="128" y="817"/>
      <point x="133" y="815"/>
      <point x="133" y="796" type="curve" smooth="yes"/>
      <point x="133" y="333" type="line" smooth="yes"/>
      <point x="133" y="14"/>
      <point x="271" y="-1"/>
    </contour>
    <contour>
      <point x="286" y="503" type="move" name="center"/>
    </contour>
    <contour>
      <point x="286" y="0" type="move" name="bottom"/>
    </contour>
  </outline>
</glyph>
<glyph name="u" format="1">
  <advance width="809"/>
  <unicode hex="0075"/>
  <outline>
    <contour>
      <point x="349" y="-10" type="curve" smooth="yes"/>
      <point x="433" y="-10"/>
      <point x="528" y="57"/>
      <point x="561" y="192" type="curve" smooth="yes"/>
      <point x="563" y="199"/>
      <point x="565" y="203"/>
      <point x="568" y="203" type="curve" smooth="yes"/>
      <point x="570" y="203"/>
      <point x="574" y="198"/>
      <point x="576" y="190" type="curve" smooth="yes"/>
      <point x="605" y="45" type="line"/>
      <point x="614" y="5"/>
      <point x="629" y="0"/>
      <point x="645" y="0" type="curve" smooth="yes"/>
      <point x="681" y="0" type="line" smooth="yes"/>
      <point x="696" y="0"/>
      <point x="707" y="15"/>
      <point x="707" y="58" type="curve" smooth="yes"/>
      <point x="707" y="959" type="line" smooth="yes"/>
      <point x="707" y="1002"/>
      <point x="696" y="1006"/>
      <point x="681" y="1006" type="curve" smooth="yes"/>
      <point x="532" y="1006" type="line" smooth="yes"/>
      <point x="517" y="1006"/>
      <point x="505" y="1002"/>
      <point x="505" y="959" type="curve" smooth="yes"/>
      <point x="505" y="405" type="line" smooth="yes"/>
      <point x="505" y="272"/>
      <point x="470" y="159"/>
      <point x="401" y="159" type="curve" smooth="yes"/>
      <point x="337" y="159"/>
      <point x="304" y="221"/>
      <point x="304" y="357" type="curve" smooth="yes"/>
      <point x="304" y="959" type="line" smooth="yes"/>
      <point x="304" y="1002"/>
      <point x="292" y="1006"/>
      <point x="278" y="1006" type="curve" smooth="yes"/>
      <point x="120" y="1006" type="line" smooth="yes"/>
      <point x="105" y="1006"/>
      <point x="94" y="1002"/>
      <point x="94" y="959" type="curve" smooth="yes"/>
      <point x="94" y="372" type="line" smooth="yes"/>
      <point x="94" y="66"/>
      <point x="220" y="-10"/>
    </contour>
    <contour>
      <point x="405" y="1006" type="move" name="top"/>
    </contour>
    <contour>
      <point x="728" y="10" type="move" name="ogonek"/>
    </contour>
  </outline>
</glyph>
<glyph name="v" format="1">
  <advance width="714"/>
  <unicode hex="0076"/>
  <outline>
    <contour>
      <point x="259" y="0" type="curve" smooth="yes"/>
      <point x="450" y="0" type="line" smooth="yes"/>
      <point x="466" y="0"/>
      <point x="480" y="27"/>
      <point x="488" y="67" type="curve" smooth="yes"/>
      <point x="654" y="945" type="line" smooth="yes"/>
      <point x="655" y="952"/>
      <point x="657" y="961"/>
      <point x="657" y="968" type="curve" smooth="yes"/>
      <point x="657" y="990"/>
      <point x="650" y="1006"/>
      <point x="641" y="1006" type="curve" smooth="yes"/>
      <point x="497" y="1006" type="line" smooth="yes"/>
      <point x="481" y="1006"/>
      <point x="465" y="990"/>
      <point x="459" y="949" type="curve" smooth="yes"/>
      <point x="374" y="331" type="line" smooth="yes"/>
      <point x="373" y="324"/>
      <point x="371" y="321"/>
      <point x="369" y="321" type="curve" smooth="yes"/>
      <point x="367" y="321"/>
      <point x="365" y="324"/>
      <point x="363" y="331" type="curve" smooth="yes"/>
      <point x="279" y="949" type="line" smooth="yes"/>
      <point x="272" y="990"/>
      <point x="259" y="1006"/>
      <point x="243" y="1006" type="curve" smooth="yes"/>
      <point x="73" y="1006" type="line" smooth="yes"/>
      <point x="64" y="1006"/>
      <point x="58" y="990"/>
      <point x="58" y="967" type="curve" smooth="yes"/>
      <point x="58" y="958"/>
      <point x="58" y="951"/>
      <point x="60" y="944" type="curve" smooth="yes"/>
      <point x="220" y="68" type="line" smooth="yes"/>
      <point x="228" y="27"/>
      <point x="243" y="0"/>
    </contour>
  </outline>
</glyph>
<glyph name="w" format="1">
  <advance width="931"/>
  <unicode hex="0077"/>
  <outline>
    <contour>
      <point x="228" y="0" type="curve" smooth="yes"/>
      <point x="368" y="0" type="line" smooth="yes"/>
      <point x="383" y="0"/>
      <point x="397" y="12"/>
      <point x="402" y="55" type="curve" smooth="yes"/>
      <point x="475" y="580" type="line" smooth="yes"/>
      <point x="476" y="585"/>
      <point x="478" y="588"/>
      <point x="479" y="588" type="curve" smooth="yes"/>
      <point x="481" y="588"/>
      <point x="482" y="585"/>
      <point x="482" y="580" type="curve" smooth="yes"/>
      <point x="548" y="55" type="line" smooth="yes"/>
      <point x="553" y="12"/>
      <point x="567" y="0"/>
      <point x="582" y="0" type="curve" smooth="yes"/>
      <point x="716" y="0" type="line" smooth="yes"/>
      <point x="732" y="0"/>
      <point x="746" y="10"/>
      <point x="752" y="52" type="curve" smooth="yes"/>
      <point x="869" y="943" type="line"/>
      <point x="870" y="950"/>
      <point x="870" y="957"/>
      <point x="870" y="964" type="curve" smooth="yes"/>
      <point x="870" y="990"/>
      <point x="863" y="1006"/>
      <point x="852" y="1006" type="curve" smooth="yes"/>
      <point x="742" y="1006" type="line" smooth="yes"/>
      <point x="727" y="1006"/>
      <point x="713" y="990"/>
      <point x="710" y="947" type="curve" smooth="yes"/>
      <point x="649" y="397" type="line" smooth="yes"/>
      <point x="649" y="392"/>
      <point x="648" y="389"/>
      <point x="647" y="389" type="curve" smooth="yes"/>
      <point x="645" y="389"/>
      <point x="643" y="391"/>
      <point x="643" y="396" type="curve" smooth="yes"/>
      <point x="577" y="948" type="line" smooth="yes"/>
      <point x="573" y="990"/>
      <point x="558" y="1006"/>
      <point x="544" y="1006" type="curve" smooth="yes"/>
      <point x="427" y="1006" type="line" smooth="yes"/>
      <point x="412" y="1006"/>
      <point x="397" y="991"/>
      <point x="393" y="948" type="curve" smooth="yes"/>
      <point x="322" y="398" type="line" smooth="yes"/>
      <point x="322" y="393"/>
      <point x="320" y="390"/>
      <point x="318" y="390" type="curve" smooth="yes"/>
      <point x="318" y="390"/>
      <point x="316" y="393"/>
      <point x="315" y="399" type="curve"/>
      <point x="254" y="946" type="line"/>
      <point x="249" y="990"/>
      <point x="237" y="1006"/>
      <point x="221" y="1006" type="curve" smooth="yes"/>
      <point x="78" y="1006" type="line" smooth="yes"/>
      <point x="67" y="1006"/>
      <point x="60" y="989"/>
      <point x="60" y="962" type="curve" smooth="yes"/>
      <point x="60" y="956"/>
      <point x="61" y="948"/>
      <point x="62" y="942" type="curve" smooth="yes"/>
      <point x="193" y="53" type="line" smooth="yes"/>
      <point x="198" y="10"/>
      <point x="213" y="0"/>
    </contour>
    <contour>
      <point x="465" y="1006" type="move" name="top"/>
    </contour>
  </outline>
</glyph>
<glyph name="y" format="1">
  <advance width="705"/>
  <unicode hex="0079"/>
  <outline>
    <contour>
      <point x="261" y="-270" type="curve" smooth="yes"/>
      <point x="367" y="-270"/>
      <point x="425" y="-236"/>
      <point x="471" y="21" type="curve"/>
      <point x="648" y="944" type="line" smooth="yes"/>
      <point x="649" y="951"/>
      <point x="651" y="961"/>
      <point x="651" y="968" type="curve" smooth="yes"/>
      <point x="651" y="994"/>
      <point x="643" y="1006"/>
      <point x="633" y="1006" type="curve" smooth="yes"/>
      <point x="525" y="1006" type="line" smooth="yes"/>
      <point x="509" y="1006"/>
      <point x="495" y="1002"/>
      <point x="490" y="959" type="curve"/>
      <point x="406" y="325" type="line" smooth="yes"/>
      <point x="406" y="318"/>
      <point x="404" y="314"/>
      <point x="402" y="314" type="curve" smooth="yes"/>
      <point x="400" y="314"/>
      <point x="398" y="321"/>
      <point x="397" y="327" type="curve" smooth="yes"/>
      <point x="284" y="962" type="line" smooth="yes"/>
      <point x="277" y="1004"/>
      <point x="261" y="1006"/>
      <point x="245" y="1006" type="curve" smooth="yes"/>
      <point x="84" y="1006" type="line" smooth="yes"/>
      <point x="76" y="1006"/>
      <point x="69" y="993"/>
      <point x="69" y="970" type="curve" smooth="yes"/>
      <point x="69" y="963"/>
      <point x="70" y="955"/>
      <point x="71" y="948" type="curve" smooth="yes"/>
      <point x="267" y="144" type="line"/>
      <point x="274" y="105"/>
      <point x="288" y="62"/>
      <point x="288" y="31" type="curve" smooth="yes"/>
      <point x="288" y="-77"/>
      <point x="254" y="-92"/>
      <point x="234" y="-92" type="curve" smooth="yes"/>
      <point x="223" y="-92"/>
      <point x="154" y="-70"/>
      <point x="151" y="-69" type="curve" smooth="yes"/>
      <point x="143" y="-69"/>
      <point x="124" y="-72"/>
      <point x="124" y="-160" type="curve" smooth="yes"/>
      <point x="124" y="-187"/>
      <point x="126" y="-212"/>
      <point x="135" y="-223" type="curve" smooth="yes"/>
      <point x="165" y="-260"/>
      <point x="220" y="-270"/>
    </contour>
    <contour>
      <point x="352" y="1006" type="move" name="top"/>
    </contour>
  </outline>
</glyph>
<glyph name="braceleft" format="1">
  <advance width="539"/>
  <unicode hex="007B"/>
  <outline>
    <contour>
      <point x="450" y="1543" type="curve" smooth="yes"/>
      <point x="350" y="1543" type="line" smooth="yes"/>
      <point x="251" y="1543"/>
      <point x="195" y="1435"/>
      <point x="190" y="1159" type="curve" smooth="yes"/>
      <point x="190" y="1149"/>
      <point x="189" y="1081"/>
      <point x="189" y="1065" type="curve" smooth="yes"/>
      <point x="185" y="926"/>
      <point x="165" y="836"/>
      <point x="111" y="834" type="curve" smooth="yes"/>
      <point x="87" y="833"/>
      <point x="83" y="811"/>
      <point x="83" y="755" type="curve" smooth="yes"/>
      <point x="83" y="677" type="line" smooth="yes"/>
      <point x="83" y="621"/>
      <point x="85" y="589"/>
      <point x="111" y="588" type="curve" smooth="yes"/>
      <point x="163" y="586"/>
      <point x="186" y="524"/>
      <point x="189" y="377" type="curve" smooth="yes"/>
      <point x="189" y="354"/>
      <point x="189" y="315"/>
      <point x="189" y="288" type="curve" smooth="yes"/>
      <point x="194" y="14"/>
      <point x="247" y="-120"/>
      <point x="350" y="-120" type="curve" smooth="yes"/>
      <point x="450" y="-120" type="line" smooth="yes"/>
      <point x="464" y="-120"/>
      <point x="476" y="-87"/>
      <point x="476" y="-45" type="curve" smooth="yes"/>
      <point x="476" y="-16" type="line" smooth="yes"/>
      <point x="476" y="35"/>
      <point x="471" y="65"/>
      <point x="449" y="65" type="curve" smooth="yes"/>
      <point x="398" y="65"/>
      <point x="393" y="135"/>
      <point x="392" y="291" type="curve" smooth="yes"/>
      <point x="392" y="321"/>
      <point x="392" y="369"/>
      <point x="392" y="404" type="curve" smooth="yes"/>
      <point x="391" y="539"/>
      <point x="386" y="669"/>
      <point x="324" y="697" type="curve"/>
      <point x="316" y="701"/>
      <point x="317" y="723"/>
      <point x="324" y="726" type="curve"/>
      <point x="389" y="757"/>
      <point x="395" y="904"/>
      <point x="396" y="1050" type="curve" smooth="yes"/>
      <point x="396" y="1065"/>
      <point x="396" y="1148"/>
      <point x="396" y="1166" type="curve" smooth="yes"/>
      <point x="397" y="1306"/>
      <point x="403" y="1358"/>
      <point x="449" y="1358" type="curve" smooth="yes"/>
      <point x="471" y="1358"/>
      <point x="476" y="1388"/>
      <point x="476" y="1439" type="curve" smooth="yes"/>
      <point x="476" y="1468" type="line" smooth="yes"/>
      <point x="476" y="1509"/>
      <point x="464" y="1543"/>
    </contour>
  </outline>
</glyph>
<glyph name="braceright" format="1">
  <advance width="539"/>
  <unicode hex="007D"/>
  <outline>
    <contour>
      <point x="109" y="-120" type="curve" smooth="yes"/>
      <point x="209" y="-120" type="line" smooth="yes"/>
      <point x="308" y="-120"/>
      <point x="364" y="-12"/>
      <point x="369" y="264" type="curve" smooth="yes"/>
      <point x="369" y="274"/>
      <point x="370" y="342"/>
      <point x="371" y="358" type="curve" smooth="yes"/>
      <point x="375" y="497"/>
      <point x="395" y="587"/>
      <point x="448" y="589" type="curve" smooth="yes"/>
      <point x="472" y="590"/>
      <point x="476" y="612"/>
      <point x="476" y="668" type="curve" smooth="yes"/>
      <point x="476" y="746" type="line" smooth="yes"/>
      <point x="476" y="802"/>
      <point x="474" y="834"/>
      <point x="448" y="835" type="curve" smooth="yes"/>
      <point x="397" y="836"/>
      <point x="374" y="899"/>
      <point x="370" y="1046" type="curve" smooth="yes"/>
      <point x="370" y="1069"/>
      <point x="370" y="1108"/>
      <point x="370" y="1135" type="curve" smooth="yes"/>
      <point x="365" y="1409"/>
      <point x="313" y="1543"/>
      <point x="209" y="1543" type="curve" smooth="yes"/>
      <point x="109" y="1543" type="line" smooth="yes"/>
      <point x="95" y="1543"/>
      <point x="83" y="1509"/>
      <point x="83" y="1468" type="curve" smooth="yes"/>
      <point x="83" y="1439" type="line" smooth="yes"/>
      <point x="83" y="1388"/>
      <point x="89" y="1358"/>
      <point x="111" y="1358" type="curve" smooth="yes"/>
      <point x="161" y="1358"/>
      <point x="167" y="1288"/>
      <point x="168" y="1132" type="curve" smooth="yes"/>
      <point x="168" y="1102"/>
      <point x="168" y="1054"/>
      <point x="168" y="1019" type="curve" smooth="yes"/>
      <point x="169" y="884"/>
      <point x="174" y="754"/>
      <point x="235" y="726" type="curve"/>
      <point x="243" y="722"/>
      <point x="242" y="700"/>
      <point x="235" y="697" type="curve"/>
      <point x="170" y="666"/>
      <point x="165" y="519"/>
      <point x="164" y="373" type="curve" smooth="yes"/>
      <point x="164" y="358"/>
      <point x="164" y="275"/>
      <point x="164" y="257" type="curve" smooth="yes"/>
      <point x="162" y="116"/>
      <point x="156" y="65"/>
      <point x="111" y="65" type="curve" smooth="yes"/>
      <point x="89" y="65"/>
      <point x="83" y="35"/>
      <point x="83" y="-16" type="curve" smooth="yes"/>
      <point x="83" y="-45" type="line" smooth="yes"/>
      <point x="83" y="-87"/>
      <point x="95" y="-120"/>
    </contour>
  </outline>
</glyph>
<glyph name="asciitilde" format="1">
  <advance width="1142"/>
  <unicode hex="007E"/>
  <outline>
    <contour>
      <point x="348" y="702" type="curve" smooth="yes"/>
      <point x="450" y="702"/>
      <point x="617" y="805"/>
      <point x="710" y="805" type="curve" smooth="yes"/>
      <point x="750" y="805"/>
      <point x="783" y="786"/>
      <point x="823" y="740" type="curve" smooth="yes"/>
      <point x="829" y="732"/>
      <point x="836" y="729"/>
      <point x="843" y="729" type="curve" smooth="yes"/>
      <point x="876" y="729"/>
      <point x="912" y="798"/>
      <point x="912" y="843" type="curve" smooth="yes"/>
      <point x="912" y="854"/>
      <point x="910" y="863"/>
      <point x="905" y="870" type="curve" smooth="yes"/>
      <point x="849" y="944"/>
      <point x="788" y="978"/>
      <point x="724" y="978" type="curve" smooth="yes"/>
      <point x="620" y="978"/>
      <point x="457" y="876"/>
      <point x="368" y="876" type="curve" smooth="yes"/>
      <point x="330" y="876"/>
      <point x="280" y="905"/>
      <point x="237" y="965" type="curve" smooth="yes"/>
      <point x="233" y="972"/>
      <point x="226" y="977"/>
      <point x="217" y="977" type="curve" smooth="yes"/>
      <point x="208" y="977"/>
      <point x="198" y="971"/>
      <point x="190" y="954" type="curve" smooth="yes"/>
      <point x="157" y="886" type="line"/>
      <point x="151" y="877"/>
      <point x="150" y="869"/>
      <point x="150" y="861" type="curve" smooth="yes"/>
      <point x="150" y="845"/>
      <point x="158" y="831"/>
      <point x="167" y="818" type="curve" smooth="yes"/>
      <point x="221" y="738"/>
      <point x="277" y="702"/>
    </contour>
  </outline>
</glyph>
<glyph name="cent" format="1">
  <advance width="618"/>
  <unicode hex="00A2"/>
  <outline>
    <contour>
      <point x="425" y="-172" type="curve" smooth="yes"/>
      <point x="459" y="-172" type="line" smooth="yes"/>
      <point x="474" y="-172"/>
      <point x="485" y="-157"/>
      <point x="485" y="-115" type="curve" smooth="yes"/>
      <point x="485" y="-5" type="line"/>
      <point x="506" y="-2"/>
      <point x="531" y="-2"/>
      <point x="546" y="8" type="curve"/>
      <point x="552" y="13"/>
      <point x="557" y="20"/>
      <point x="557" y="31" type="curve"/>
      <point x="557" y="158" type="line"/>
      <point x="557" y="170"/>
      <point x="550" y="182"/>
      <point x="542" y="184" type="curve"/>
      <point x="527" y="180"/>
      <point x="508" y="175"/>
      <point x="485" y="172" type="curve"/>
      <point x="485" y="835" type="line"/>
      <point x="502" y="833"/>
      <point x="526" y="822"/>
      <point x="543" y="821" type="curve"/>
      <point x="551" y="821"/>
      <point x="557" y="826"/>
      <point x="556" y="839" type="curve"/>
      <point x="556" y="976" type="line"/>
      <point x="556" y="982"/>
      <point x="551" y="988"/>
      <point x="544" y="991" type="curve"/>
      <point x="528" y="1000"/>
      <point x="501" y="1003"/>
      <point x="485" y="1007" type="curve"/>
      <point x="485" y="1169" type="line" smooth="yes"/>
      <point x="485" y="1212"/>
      <point x="474" y="1226"/>
      <point x="459" y="1226" type="curve" smooth="yes"/>
      <point x="425" y="1226" type="line" smooth="yes"/>
      <point x="410" y="1226"/>
      <point x="399" y="1212"/>
      <point x="399" y="1169" type="curve" smooth="yes"/>
      <point x="399" y="1017" type="line"/>
      <point x="237" y="1017"/>
      <point x="82" y="922"/>
      <point x="82" y="510" type="curve" smooth="yes"/>
      <point x="82" y="69"/>
      <point x="236" y="-4"/>
      <point x="399" y="-10" type="curve"/>
      <point x="399" y="-115" type="line" smooth="yes"/>
      <point x="399" y="-157"/>
      <point x="410" y="-172"/>
    </contour>
    <contour>
      <point x="399" y="174" type="line"/>
      <point x="338" y="186"/>
      <point x="300" y="245"/>
      <point x="300" y="510" type="curve" smooth="yes"/>
      <point x="300" y="744"/>
      <point x="343" y="812"/>
      <point x="399" y="832" type="curve"/>
    </contour>
  </outline>
</glyph>
<glyph name="sterling" format="1">
  <advance width="1020"/>
  <unicode hex="00A3"/>
  <outline>
    <contour>
      <point x="109" y="0" type="curve" smooth="yes"/>
      <point x="951" y="0" type="line" smooth="yes"/>
      <point x="983" y="0"/>
      <point x="999" y="10"/>
      <point x="999" y="44" type="curve" smooth="yes"/>
      <point x="999" y="134" type="line" smooth="yes"/>
      <point x="999" y="175"/>
      <point x="983" y="188"/>
      <point x="951" y="188" type="curve" smooth="yes"/>
      <point x="511" y="188" type="line" smooth="yes"/>
      <point x="475" y="188"/>
      <point x="473" y="198"/>
      <point x="473" y="238" type="curve" smooth="yes"/>
      <point x="473" y="660" type="line"/>
      <point x="731" y="660" type="line" smooth="yes"/>
      <point x="772" y="660"/>
      <point x="792" y="682"/>
      <point x="792" y="724" type="curve" smooth="yes"/>
      <point x="792" y="774" type="line" smooth="yes"/>
      <point x="792" y="816"/>
      <point x="772" y="838"/>
      <point x="731" y="838" type="curve" smooth="yes"/>
      <point x="475" y="838" type="line"/>
      <point x="475" y="923" type="line" smooth="yes"/>
      <point x="475" y="1190"/>
      <point x="506" y="1263"/>
      <point x="691" y="1264" type="curve" smooth="yes"/>
      <point x="831" y="1264"/>
      <point x="861" y="1215"/>
      <point x="925" y="1214" type="curve" smooth="yes"/>
      <point x="951" y="1214"/>
      <point x="962" y="1226"/>
      <point x="970" y="1256" type="curve"/>
      <point x="990" y="1353" type="line"/>
      <point x="998" y="1394"/>
      <point x="976" y="1402"/>
      <point x="939" y="1422" type="curve" smooth="yes"/>
      <point x="897" y="1443"/>
      <point x="798" y="1474"/>
      <point x="687" y="1474" type="curve" smooth="yes"/>
      <point x="256" y="1473"/>
      <point x="215" y="1223"/>
      <point x="215" y="990" type="curve" smooth="yes"/>
      <point x="215" y="939"/>
      <point x="217" y="883"/>
      <point x="217" y="838" type="curve"/>
      <point x="118" y="838" type="line" smooth="yes"/>
      <point x="76" y="838"/>
      <point x="57" y="816"/>
      <point x="57" y="774" type="curve" smooth="yes"/>
      <point x="57" y="724" type="line" smooth="yes"/>
      <point x="57" y="682"/>
      <point x="76" y="660"/>
      <point x="118" y="660" type="curve" smooth="yes"/>
      <point x="190" y="660" type="line" smooth="yes"/>
      <point x="215" y="660"/>
      <point x="222" y="644"/>
      <point x="222" y="617" type="curve" smooth="yes"/>
      <point x="222" y="212" type="line" smooth="yes"/>
      <point x="222" y="193"/>
      <point x="219" y="188"/>
      <point x="190" y="188" type="curve" smooth="yes"/>
      <point x="109" y="188" type="line" smooth="yes"/>
      <point x="67" y="188"/>
      <point x="57" y="163"/>
      <point x="57" y="121" type="curve" smooth="yes"/>
      <point x="57" y="64" type="line" smooth="yes"/>
      <point x="57" y="22"/>
      <point x="67" y="0"/>
    </contour>
  </outline>
</glyph>
<glyph name="yen" format="1">
  <advance width="790"/>
  <unicode hex="00A5"/>
  <outline>
    <contour>
      <point x="298" y="0" type="curve" smooth="yes"/>
      <point x="499" y="0" type="line" smooth="yes"/>
      <point x="513" y="0"/>
      <point x="525" y="7"/>
      <point x="525" y="50" type="curve" smooth="yes"/>
      <point x="525" y="301" type="line"/>
      <point x="690" y="301" type="line" smooth="yes"/>
      <point x="704" y="301"/>
      <point x="716" y="305"/>
      <point x="716" y="347" type="curve" smooth="yes"/>
      <point x="716" y="443" type="line" smooth="yes"/>
      <point x="716" y="485"/>
      <point x="704" y="489"/>
      <point x="690" y="489" type="curve" smooth="yes"/>
      <point x="540" y="489" type="line"/>
      <point x="559" y="573" type="line"/>
      <point x="697" y="573" type="line" smooth="yes"/>
      <point x="711" y="573"/>
      <point x="723" y="577"/>
      <point x="723" y="619" type="curve" smooth="yes"/>
      <point x="723" y="715" type="line" smooth="yes"/>
      <point x="723" y="757"/>
      <point x="711" y="761"/>
      <point x="697" y="761" type="curve" smooth="yes"/>
      <point x="606" y="761" type="line"/>
      <point x="760" y="1376" type="line"/>
      <point x="762" y="1384"/>
      <point x="763" y="1392"/>
      <point x="763" y="1400" type="curve" smooth="yes"/>
      <point x="763" y="1420"/>
      <point x="757" y="1438"/>
      <point x="749" y="1438" type="curve" smooth="yes"/>
      <point x="595" y="1438" type="line" smooth="yes"/>
      <point x="580" y="1438"/>
      <point x="561" y="1414"/>
      <point x="554" y="1376" type="curve" smooth="yes"/>
      <point x="426" y="766" type="line"/>
      <point x="407" y="766" type="line"/>
      <point x="275" y="1377" type="line" smooth="yes"/>
      <point x="268" y="1416"/>
      <point x="249" y="1438"/>
      <point x="232" y="1438" type="curve" smooth="yes"/>
      <point x="43" y="1438" type="line" smooth="yes"/>
      <point x="35" y="1438"/>
      <point x="30" y="1420"/>
      <point x="30" y="1401" type="curve" smooth="yes"/>
      <point x="30" y="1393"/>
      <point x="31" y="1385"/>
      <point x="33" y="1377" type="curve"/>
      <point x="191" y="761" type="line"/>
      <point x="102" y="761" type="line" smooth="yes"/>
      <point x="87" y="761"/>
      <point x="75" y="757"/>
      <point x="75" y="715" type="curve" smooth="yes"/>
      <point x="75" y="619" type="line" smooth="yes"/>
      <point x="75" y="577"/>
      <point x="87" y="573"/>
      <point x="102" y="573" type="curve" smooth="yes"/>
      <point x="238" y="573" type="line"/>
      <point x="257" y="489" type="line"/>
      <point x="102" y="489" type="line" smooth="yes"/>
      <point x="87" y="489"/>
      <point x="75" y="485"/>
      <point x="75" y="443" type="curve" smooth="yes"/>
      <point x="75" y="347" type="line" smooth="yes"/>
      <point x="75" y="305"/>
      <point x="87" y="301"/>
      <point x="102" y="301" type="curve" smooth="yes"/>
      <point x="273" y="301" type="line"/>
      <point x="273" y="50" type="line" smooth="yes"/>
      <point x="273" y="7"/>
      <point x="283" y="0"/>
    </contour>
  </outline>
</glyph>
<glyph name="brokenbar" format="1">
  <advance width="361"/>
  <unicode hex="00A6"/>
  <outline>
    <contour>
      <point x="154" y="-145" type="curve" smooth="yes"/>
      <point x="208" y="-145" type="line" smooth="yes"/>
      <point x="223" y="-145"/>
      <point x="234" y="-122"/>
      <point x="234" y="-79" type="curve" smooth="yes"/>
      <point x="234" y="476" type="line" smooth="yes"/>
      <point x="234" y="519"/>
      <point x="223" y="542"/>
      <point x="208" y="542" type="curve" smooth="yes"/>
      <point x="154" y="542" type="line" smooth="yes"/>
      <point x="139" y="542"/>
      <point x="127" y="519"/>
      <point x="127" y="476" type="curve" smooth="yes"/>
      <point x="127" y="-79" type="line" smooth="yes"/>
      <point x="127" y="-122"/>
      <point x="139" y="-145"/>
    </contour>
    <contour>
      <point x="153" y="866" type="curve" smooth="yes"/>
      <point x="207" y="866" type="line" smooth="yes"/>
      <point x="222" y="866"/>
      <point x="234" y="889"/>
      <point x="234" y="932" type="curve" smooth="yes"/>
      <point x="234" y="1487" type="line" smooth="yes"/>
      <point x="234" y="1530"/>
      <point x="222" y="1553"/>
      <point x="207" y="1553" type="curve" smooth="yes"/>
      <point x="153" y="1553" type="line" smooth="yes"/>
      <point x="138" y="1553"/>
      <point x="126" y="1530"/>
      <point x="126" y="1487" type="curve" smooth="yes"/>
      <point x="126" y="932" type="line" smooth="yes"/>
      <point x="126" y="889"/>
      <point x="138" y="866"/>
    </contour>
  </outline>
</glyph>
<glyph name="dieresis" format="1">
  <advance width="346"/>
  <unicode hex="00A8"/>
  <outline>
    <contour>
      <point x="30" y="0" type="curve" smooth="yes"/>
      <point x="98" y="0" type="line" smooth="yes"/>
      <point x="113" y="0"/>
      <point x="125" y="15"/>
      <point x="125" y="57" type="curve" smooth="yes"/>
      <point x="125" y="177" type="line" smooth="yes"/>
      <point x="125" y="219"/>
      <point x="113" y="234"/>
      <point x="98" y="234" type="curve" smooth="yes"/>
      <point x="30" y="234" type="line" smooth="yes"/>
      <point x="15" y="234"/>
      <point x="3" y="219"/>
      <point x="3" y="177" type="curve" smooth="yes"/>
      <point x="3" y="57" type="line" smooth="yes"/>
      <point x="3" y="15"/>
      <point x="15" y="0"/>
    </contour>
    <contour>
      <point x="260" y="0" type="curve" smooth="yes"/>
      <point x="329" y="0" type="line" smooth="yes"/>
      <point x="344" y="0"/>
      <point x="356" y="15"/>
      <point x="356" y="57" type="curve" smooth="yes"/>
      <point x="356" y="177" type="line" smooth="yes"/>
      <point x="356" y="219"/>
      <point x="344" y="234"/>
      <point x="329" y="234" type="curve" smooth="yes"/>
      <point x="260" y="234" type="line" smooth="yes"/>
      <point x="245" y="234"/>
      <point x="233" y="219"/>
      <point x="233" y="177" type="curve" smooth="yes"/>
      <point x="233" y="57" type="line" smooth="yes"/>
      <point x="233" y="15"/>
      <point x="245" y="0"/>
    </contour>
    <contour>
      <point x="170" y="1006" type="move" name="_top"/>
    </contour>
  </outline>
</glyph>
<glyph name="copyright" format="1">
  <advance width="1506"/>
  <unicode hex="00A9"/>
  <outline>
    <contour>
      <point x="763" y="337" type="curve" smooth="yes"/>
      <point x="831" y="337"/>
      <point x="879" y="351"/>
      <point x="936" y="381" type="curve" smooth="yes"/>
      <point x="949" y="387"/>
      <point x="954" y="401"/>
      <point x="954" y="418" type="curve" smooth="yes"/>
      <point x="954" y="452"/>
      <point x="933" y="495"/>
      <point x="916" y="495" type="curve" smooth="yes"/>
      <point x="915" y="495"/>
      <point x="913" y="494"/>
      <point x="912" y="494" type="curve" smooth="yes"/>
      <point x="881" y="481"/>
      <point x="862" y="458"/>
      <point x="781" y="458" type="curve" smooth="yes"/>
      <point x="691" y="458"/>
      <point x="595" y="515"/>
      <point x="595" y="729" type="curve" smooth="yes"/>
      <point x="595" y="907"/>
      <point x="665" y="998"/>
      <point x="777" y="998" type="curve" smooth="yes"/>
      <point x="825" y="998"/>
      <point x="871" y="975"/>
      <point x="909" y="951" type="curve" smooth="yes"/>
      <point x="912" y="949"/>
      <point x="914" y="948"/>
      <point x="917" y="948" type="curve" smooth="yes"/>
      <point x="935" y="948"/>
      <point x="948" y="986"/>
      <point x="948" y="1019" type="curve" smooth="yes"/>
      <point x="948" y="1038"/>
      <point x="944" y="1055"/>
      <point x="933" y="1063" type="curve" smooth="yes"/>
      <point x="885" y="1098"/>
      <point x="821" y="1117"/>
      <point x="750" y="1117" type="curve" smooth="yes"/>
      <point x="615" y="1117"/>
      <point x="462" y="1014"/>
      <point x="462" y="730" type="curve" smooth="yes"/>
      <point x="462" y="449"/>
      <point x="619" y="337"/>
    </contour>
    <contour>
      <point x="756" y="113" type="curve" smooth="yes"/>
      <point x="375" y="113"/>
      <point x="233" y="437"/>
      <point x="233" y="718" type="curve" smooth="yes"/>
      <point x="233" y="1010"/>
      <point x="375" y="1326"/>
      <point x="756" y="1326" type="curve" smooth="yes"/>
      <point x="1136" y="1326"/>
      <point x="1278" y="1010"/>
      <point x="1278" y="718" type="curve" smooth="yes"/>
      <point x="1278" y="437"/>
      <point x="1136" y="113"/>
    </contour>
    <contour>
      <point x="753" y="-18" type="curve" smooth="yes"/>
      <point x="1193" y="-18"/>
      <point x="1411" y="333"/>
      <point x="1411" y="722" type="curve" smooth="yes"/>
      <point x="1411" y="1111"/>
      <point x="1193" y="1461"/>
      <point x="753" y="1461" type="curve" smooth="yes"/>
      <point x="314" y="1461"/>
      <point x="96" y="1111"/>
      <point x="96" y="722" type="curve" smooth="yes"/>
      <point x="96" y="333"/>
      <point x="314" y="-18"/>
    </contour>
  </outline>
</glyph>
<glyph name="logicalnot" format="1">
  <advance width="1247"/>
  <unicode hex="00AC"/>
  <outline>
    <contour>
      <point x="926" y="206" type="curve" smooth="yes"/>
      <point x="1048" y="206" type="line" smooth="yes"/>
      <point x="1089" y="206"/>
      <point x="1109" y="238"/>
      <point x="1109" y="281" type="curve" smooth="yes"/>
      <point x="1109" y="717" type="line" smooth="yes"/>
      <point x="1109" y="759"/>
      <point x="1076" y="785"/>
      <point x="1034" y="785" type="curve" smooth="yes"/>
      <point x="188" y="785" type="line" smooth="yes"/>
      <point x="146" y="785"/>
      <point x="126" y="766"/>
      <point x="126" y="723" type="curve" smooth="yes"/>
      <point x="126" y="638" type="line" smooth="yes"/>
      <point x="126" y="596"/>
      <point x="146" y="577"/>
      <point x="188" y="577" type="curve" smooth="yes"/>
      <point x="830" y="577" type="line" smooth="yes"/>
      <point x="849" y="577"/>
      <point x="866" y="560"/>
      <point x="866" y="540" type="curve" smooth="yes"/>
      <point x="866" y="281" type="line" smooth="yes"/>
      <point x="866" y="238"/>
      <point x="884" y="206"/>
    </contour>
  </outline>
</glyph>
<glyph name="macron" format="1">
  <advance width="1052"/>
  <unicode hex="00AF"/>
  <outline>
    <contour>
      <point x="355" y="1033" type="curve" smooth="yes"/>
      <point x="710" y="1033" type="line" smooth="yes"/>
      <point x="739" y="1033"/>
      <point x="753" y="1051"/>
      <point x="753" y="1081" type="curve" smooth="yes"/>
      <point x="753" y="1122" type="line" smooth="yes"/>
      <point x="753" y="1152"/>
      <point x="739" y="1170"/>
      <point x="710" y="1170" type="curve" smooth="yes"/>
      <point x="355" y="1170" type="line" smooth="yes"/>
      <point x="325" y="1170"/>
      <point x="313" y="1152"/>
      <point x="313" y="1122" type="curve" smooth="yes"/>
      <point x="313" y="1080" type="line" smooth="yes"/>
      <point x="313" y="1051"/>
      <point x="325" y="1033"/>
    </contour>
    <contour>
      <point x="533" y="1006" type="move" name="_top"/>
    </contour>
  </outline>
</glyph>
<glyph name="plusminus" format="1">
  <advance width="802"/>
  <unicode hex="00B1"/>
  <outline>
    <contour>
      <point x="352" y="434" type="curve" smooth="yes"/>
      <point x="450" y="434" type="line" smooth="yes"/>
      <point x="468" y="434"/>
      <point x="481" y="438"/>
      <point x="481" y="479" type="curve" smooth="yes"/>
      <point x="481" y="692" type="line" smooth="yes"/>
      <point x="481" y="712"/>
      <point x="488" y="714"/>
      <point x="498" y="714" type="curve" smooth="yes"/>
      <point x="668" y="714" type="line" smooth="yes"/>
      <point x="684" y="714"/>
      <point x="699" y="718"/>
      <point x="699" y="758" type="curve" smooth="yes"/>
      <point x="699" y="803" type="line" smooth="yes"/>
      <point x="699" y="845"/>
      <point x="684" y="848"/>
      <point x="668" y="848" type="curve" smooth="yes"/>
      <point x="498" y="848" type="line" smooth="yes"/>
      <point x="488" y="848"/>
      <point x="481" y="850"/>
      <point x="481" y="870" type="curve" smooth="yes"/>
      <point x="481" y="1070" type="line" smooth="yes"/>
      <point x="481" y="1111"/>
      <point x="468" y="1115"/>
      <point x="450" y="1115" type="curve" smooth="yes"/>
      <point x="352" y="1115" type="line" smooth="yes"/>
      <point x="333" y="1115"/>
      <point x="319" y="1111"/>
      <point x="319" y="1070" type="curve" smooth="yes"/>
      <point x="319" y="870" type="line" smooth="yes"/>
      <point x="319" y="850"/>
      <point x="313" y="848"/>
      <point x="304" y="848" type="curve" smooth="yes"/>
      <point x="131" y="848" type="line" smooth="yes"/>
      <point x="114" y="848"/>
      <point x="100" y="845"/>
      <point x="100" y="803" type="curve" smooth="yes"/>
      <point x="100" y="758" type="line" smooth="yes"/>
      <point x="100" y="718"/>
      <point x="114" y="714"/>
      <point x="131" y="714" type="curve" smooth="yes"/>
      <point x="304" y="714" type="line" smooth="yes"/>
      <point x="313" y="714"/>
      <point x="319" y="712"/>
      <point x="319" y="692" type="curve" smooth="yes"/>
      <point x="319" y="479" type="line" smooth="yes"/>
      <point x="319" y="438"/>
      <point x="333" y="434"/>
    </contour>
    <contour>
      <point x="130" y="187" type="curve" smooth="yes"/>
      <point x="667" y="187" type="line" smooth="yes"/>
      <point x="683" y="187"/>
      <point x="698" y="191"/>
      <point x="698" y="231" type="curve" smooth="yes"/>
      <point x="698" y="276" type="line" smooth="yes"/>
      <point x="698" y="318"/>
      <point x="683" y="321"/>
      <point x="667" y="321" type="curve" smooth="yes"/>
      <point x="130" y="321" type="line" smooth="yes"/>
      <point x="113" y="321"/>
      <point x="99" y="318"/>
      <point x="99" y="276" type="curve" smooth="yes"/>
      <point x="99" y="231" type="line" smooth="yes"/>
      <point x="99" y="191"/>
      <point x="113" y="187"/>
    </contour>
  </outline>
</glyph>
<glyph name="paragraph" format="1">
  <advance width="1397"/>
  <unicode hex="00B6"/>
  <outline>
    <contour>
      <point x="718" y="-1" type="curve" smooth="yes"/>
      <point x="777" y="-1" type="line" smooth="yes"/>
      <point x="819" y="-1"/>
      <point x="838" y="33"/>
      <point x="838" y="76" type="curve" smooth="yes"/>
      <point x="838" y="738" type="line"/>
      <point x="935" y="738" type="line" smooth="yes"/>
      <point x="945" y="738"/>
      <point x="954" y="729"/>
      <point x="954" y="717" type="curve" smooth="yes"/>
      <point x="954" y="76" type="line" smooth="yes"/>
      <point x="954" y="33"/>
      <point x="973" y="-1"/>
      <point x="1015" y="-1" type="curve" smooth="yes"/>
      <point x="1065" y="-1" type="line" smooth="yes"/>
      <point x="1107" y="-1"/>
      <point x="1126" y="33"/>
      <point x="1126" y="76" type="curve" smooth="yes"/>
      <point x="1126" y="1334" type="line" smooth="yes"/>
      <point x="1126" y="1377"/>
      <point x="1112" y="1404"/>
      <point x="1069" y="1412" type="curve" smooth="yes"/>
      <point x="1019" y="1421"/>
      <point x="876" y="1438"/>
      <point x="758" y="1438" type="curve" smooth="yes"/>
      <point x="388" y="1438"/>
      <point x="243" y="1340"/>
      <point x="243" y="1095" type="curve" smooth="yes"/>
      <point x="243" y="837"/>
      <point x="470" y="738"/>
      <point x="630" y="738" type="curve" smooth="yes"/>
      <point x="657" y="738" type="line"/>
      <point x="657" y="76" type="line" smooth="yes"/>
      <point x="657" y="33"/>
      <point x="675" y="-1"/>
    </contour>
  </outline>
</glyph>
<glyph name="cedilla" format="1">
  <advance width="692"/>
  <unicode hex="00B8"/>
  <outline>
    <contour>
      <point x="390" y="-582" type="curve" smooth="yes"/>
      <point x="530" y="-582"/>
      <point x="593" y="-496"/>
      <point x="593" y="-319" type="curve" smooth="yes"/>
      <point x="593" y="-208"/>
      <point x="537" y="-97"/>
      <point x="432" y="-97" type="curve" smooth="yes"/>
      <point x="351" y="-97" type="line" smooth="yes"/>
      <point x="339" y="-97"/>
      <point x="336" y="-104"/>
      <point x="336" y="-114" type="curve" smooth="yes"/>
      <point x="336" y="-184" type="line" smooth="yes"/>
      <point x="336" y="-195"/>
      <point x="351" y="-194"/>
      <point x="351" y="-194" type="curve"/>
      <point x="389" y="-194" type="line" smooth="yes"/>
      <point x="437" y="-194"/>
      <point x="469" y="-272"/>
      <point x="469" y="-348" type="curve" smooth="yes"/>
      <point x="469" y="-452"/>
      <point x="443" y="-490"/>
      <point x="397" y="-490" type="curve" smooth="yes"/>
      <point x="347" y="-490"/>
      <point x="325" y="-448"/>
      <point x="325" y="-398" type="curve" smooth="yes"/>
      <point x="325" y="-365"/>
      <point x="344" y="-314"/>
      <point x="300" y="-314" type="curve" smooth="yes"/>
      <point x="236" y="-314" type="line" smooth="yes"/>
      <point x="203" y="-314"/>
      <point x="200" y="-373"/>
      <point x="200" y="-405" type="curve" smooth="yes"/>
      <point x="200" y="-513"/>
      <point x="279" y="-582"/>
    </contour>
    <contour>
      <point x="396" y="0" type="move" name="_bottom"/>
    </contour>
  </outline>
</glyph>
<glyph name="AE" format="1">
  <advance width="1049"/>
  <unicode hex="00C6"/>
  <outline>
    <contour>
      <point x="65" y="0" type="curve" smooth="yes"/>
      <point x="65" y="0"/>
      <point x="251" y="0"/>
      <point x="253" y="0" type="curve" smooth="yes"/>
      <point x="265" y="0"/>
      <point x="274" y="4"/>
      <point x="278" y="37" type="curve"/>
      <point x="330" y="268" type="line"/>
      <point x="334" y="287"/>
      <point x="334" y="299"/>
      <point x="344" y="299" type="curve"/>
      <point x="525" y="299" type="line"/>
      <point x="525" y="46" type="line" smooth="yes"/>
      <point x="525" y="4"/>
      <point x="537" y="0"/>
      <point x="552" y="0" type="curve" smooth="yes"/>
      <point x="973" y="0" type="line" smooth="yes"/>
      <point x="988" y="0"/>
      <point x="999" y="4"/>
      <point x="999" y="46" type="curve" smooth="yes"/>
      <point x="999" y="158" type="line" smooth="yes"/>
      <point x="999" y="201"/>
      <point x="988" y="204"/>
      <point x="973" y="204" type="curve" smooth="yes"/>
      <point x="778" y="204" type="line"/>
      <point x="778" y="577" type="line"/>
      <point x="778" y="596"/>
      <point x="784" y="613"/>
      <point x="791" y="613" type="curve"/>
      <point x="900" y="613" type="line" smooth="yes"/>
      <point x="915" y="613"/>
      <point x="926" y="627"/>
      <point x="926" y="669" type="curve" smooth="yes"/>
      <point x="926" y="778" type="line" smooth="yes"/>
      <point x="926" y="820"/>
      <point x="915" y="833"/>
      <point x="900" y="833" type="curve" smooth="yes"/>
      <point x="790" y="833" type="line"/>
      <point x="784" y="833"/>
      <point x="778" y="850"/>
      <point x="778" y="869" type="curve"/>
      <point x="778" y="1197" type="line" smooth="yes"/>
      <point x="778" y="1217"/>
      <point x="784" y="1234"/>
      <point x="791" y="1234" type="curve" smooth="yes"/>
      <point x="966" y="1234" type="line" smooth="yes"/>
      <point x="981" y="1234"/>
      <point x="993" y="1237"/>
      <point x="993" y="1280" type="curve" smooth="yes"/>
      <point x="993" y="1392" type="line" smooth="yes"/>
      <point x="993" y="1434"/>
      <point x="981" y="1438"/>
      <point x="966" y="1438" type="curve" smooth="yes"/>
      <point x="393" y="1438" type="line" smooth="yes"/>
      <point x="377" y="1438"/>
      <point x="363" y="1433"/>
      <point x="356" y="1392" type="curve" smooth="yes"/>
      <point x="51" y="68" type="line"/>
      <point x="50" y="61"/>
      <point x="50" y="34"/>
      <point x="50" y="27" type="curve" smooth="yes"/>
      <point x="50" y="2"/>
      <point x="56" y="0"/>
    </contour>
    <contour>
      <point x="385" y="454" type="line"/>
      <point x="367" y="454"/>
      <point x="363" y="471"/>
      <point x="368" y="487" type="curve" smooth="yes"/>
      <point x="516" y="1214" type="line"/>
      <point x="517" y="1220"/>
      <point x="519" y="1223"/>
      <point x="521" y="1223" type="curve"/>
      <point x="523" y="1223"/>
      <point x="525" y="1220"/>
      <point x="525" y="1213" type="curve"/>
      <point x="525" y="479" type="line"/>
      <point x="525" y="466"/>
      <point x="522" y="454"/>
      <point x="517" y="454" type="curve"/>
    </contour>
    <contour>
      <point x="446" y="1438" type="move" name="top"/>
    </contour>
  </outline>
</glyph>
<glyph name="Eth" format="1">
  <advance width="959"/>
  <unicode hex="00D0"/>
  <outline>
    <contour>
      <point x="387" y="204" type="curve"/>
      <point x="380" y="204"/>
      <point x="374" y="209"/>
      <point x="374" y="229" type="curve" smooth="yes"/>
      <point x="374" y="634" type="line"/>
      <point x="420" y="634" type="line"/>
      <point x="460" y="634"/>
      <point x="479" y="649"/>
      <point x="481" y="687" type="curve"/>
      <point x="481" y="751" type="line"/>
      <point x="481" y="793"/>
      <point x="462" y="809"/>
      <point x="420" y="809" type="curve" smooth="yes"/>
      <point x="374" y="809" type="line"/>
      <point x="374" y="1207" type="line" smooth="yes"/>
      <point x="374" y="1227"/>
      <point x="380" y="1234"/>
      <point x="387" y="1234" type="curve" smooth="yes"/>
      <point x="477" y="1234" type="line" smooth="yes"/>
      <point x="551" y="1234"/>
      <point x="620" y="1163"/>
      <point x="620" y="729" type="curve" smooth="yes"/>
      <point x="620" y="286"/>
      <point x="565" y="204"/>
      <point x="466" y="204" type="curve" smooth="yes"/>
      <point x="445" y="204"/>
      <point x="412" y="203"/>
    </contour>
    <contour>
      <point x="148" y="0" type="curve" smooth="yes"/>
      <point x="479" y="0" type="line" smooth="yes"/>
      <point x="721" y="0"/>
      <point x="873" y="24"/>
      <point x="873" y="732" type="curve" smooth="yes"/>
      <point x="873" y="1264"/>
      <point x="737" y="1438"/>
      <point x="518" y="1438" type="curve" smooth="yes"/>
      <point x="148" y="1438" type="line" smooth="yes"/>
      <point x="133" y="1438"/>
      <point x="121" y="1434"/>
      <point x="121" y="1392" type="curve" smooth="yes"/>
      <point x="121" y="809" type="line"/>
      <point x="85" y="809" type="line" smooth="yes"/>
      <point x="43" y="809"/>
      <point x="25" y="793"/>
      <point x="25" y="751" type="curve" smooth="yes"/>
      <point x="25" y="693" type="line" smooth="yes"/>
      <point x="25" y="651"/>
      <point x="43" y="634"/>
      <point x="85" y="634" type="curve" smooth="yes"/>
      <point x="121" y="634" type="line"/>
      <point x="121" y="47" type="line" smooth="yes"/>
      <point x="121" y="4"/>
      <point x="133" y="0"/>
    </contour>
  </outline>
</glyph>
<glyph name="Oslash" format="1">
  <advance width="960"/>
  <unicode hex="00D8"/>
  <outline>
    <contour>
      <point x="311" y="-205" type="curve" smooth="yes"/>
      <point x="404" y="-207" type="line" smooth="yes"/>
      <point x="410" y="-207"/>
      <point x="417" y="-194"/>
      <point x="419" y="-174" type="curve" smooth="yes"/>
      <point x="441" y="-16" type="line"/>
      <point x="454" y="-17"/>
      <point x="467" y="-17"/>
      <point x="480" y="-17" type="curve" smooth="yes"/>
      <point x="751" y="-17"/>
      <point x="874" y="102"/>
      <point x="874" y="730" type="curve" smooth="yes"/>
      <point x="874" y="1199"/>
      <point x="798" y="1378"/>
      <point x="647" y="1437" type="curve"/>
      <point x="672" y="1614" type="line" smooth="yes"/>
      <point x="675" y="1629"/>
      <point x="671" y="1647"/>
      <point x="666" y="1647" type="curve" smooth="yes"/>
      <point x="574" y="1647" type="line" smooth="yes"/>
      <point x="568" y="1647"/>
      <point x="562" y="1634"/>
      <point x="559" y="1614" type="curve" smooth="yes"/>
      <point x="537" y="1460" type="line"/>
      <point x="519" y="1461"/>
      <point x="500" y="1462"/>
      <point x="480" y="1462" type="curve" smooth="yes"/>
      <point x="220" y="1462"/>
      <point x="86" y="1348"/>
      <point x="86" y="730" type="curve" smooth="yes"/>
      <point x="86" y="233"/>
      <point x="164" y="55"/>
      <point x="330" y="2" type="curve"/>
      <point x="305" y="-172" type="line" smooth="yes"/>
      <point x="305" y="-173"/>
      <point x="308" y="-205"/>
    </contour>
    <contour>
      <point x="371" y="295" type="line"/>
      <point x="348" y="375"/>
      <point x="339" y="510"/>
      <point x="339" y="730" type="curve" smooth="yes"/>
      <point x="339" y="1156"/>
      <point x="367" y="1254"/>
      <point x="481" y="1254" type="curve" smooth="yes"/>
      <point x="490" y="1254"/>
      <point x="499" y="1253"/>
      <point x="508" y="1252" type="curve"/>
    </contour>
    <contour>
      <point x="479" y="189" type="curve" smooth="yes"/>
      <point x="476" y="189"/>
      <point x="474" y="189"/>
      <point x="471" y="189" type="curve"/>
      <point x="601" y="1109" type="line"/>
      <point x="616" y="1030"/>
      <point x="621" y="910"/>
      <point x="621" y="730" type="curve" smooth="yes"/>
      <point x="621" y="299"/>
      <point x="590" y="189"/>
    </contour>
    <contour>
      <point x="428" y="1438" type="move" name="top"/>
    </contour>
  </outline>
</glyph>
<glyph name="oslash" format="1">
  <advance width="812"/>
  <unicode hex="00F8"/>
  <outline>
    <contour>
      <point x="192" y="-91" type="line"/>
      <point x="196" y="-92"/>
      <point x="202" y="-85"/>
      <point x="206" y="-72" type="curve"/>
      <point x="680" y="1047" type="line" smooth="yes"/>
      <point x="685" y="1056"/>
      <point x="686" y="1069"/>
      <point x="683" y="1069" type="curve"/>
      <point x="631" y="1085" type="line" smooth="yes"/>
      <point x="628" y="1086"/>
      <point x="622" y="1078"/>
      <point x="616" y="1066" type="curve" smooth="yes"/>
      <point x="143" y="-52" type="line"/>
      <point x="140" y="-62"/>
      <point x="138" y="-73"/>
      <point x="140" y="-74" type="curve" smooth="yes"/>
    </contour>
    <component base="o"/>
    <contour>
      <point x="410" y="1006" type="move" name="top"/>
    </contour>
  </outline>
</glyph>
<glyph name="thorn" format="1">
  <advance width="802"/>
  <unicode hex="00FE"/>
  <outline>
    <contour>
      <point x="133" y="-310" type="curve" smooth="yes"/>
      <point x="281" y="-310" type="line" smooth="yes"/>
      <point x="296" y="-310"/>
      <point x="308" y="-276"/>
      <point x="308" y="-233" type="curve" smooth="yes"/>
      <point x="308" y="104" type="line"/>
      <point x="346" y="23"/>
      <point x="409" y="-10"/>
      <point x="464" y="-10" type="curve" smooth="yes"/>
      <point x="593" y="-10"/>
      <point x="721" y="132"/>
      <point x="721" y="498" type="curve" smooth="yes"/>
      <point x="721" y="886"/>
      <point x="596" y="1017"/>
      <point x="479" y="1017" type="curve" smooth="yes"/>
      <point x="417" y="1017"/>
      <point x="361" y="984"/>
      <point x="324" y="900" type="curve"/>
      <point x="322" y="896"/>
      <point x="318" y="892"/>
      <point x="315" y="892" type="curve" smooth="yes"/>
      <point x="312" y="892"/>
      <point x="308" y="897"/>
      <point x="308" y="911" type="curve" smooth="yes"/>
      <point x="308" y="1347" type="line" smooth="yes"/>
      <point x="308" y="1390"/>
      <point x="296" y="1424"/>
      <point x="282" y="1424" type="curve" smooth="yes"/>
      <point x="134" y="1424" type="line" smooth="yes"/>
      <point x="119" y="1424"/>
      <point x="107" y="1390"/>
      <point x="107" y="1347" type="curve" smooth="yes"/>
      <point x="107" y="-233" type="line" smooth="yes"/>
      <point x="107" y="-276"/>
      <point x="119" y="-310"/>
    </contour>
    <contour>
      <point x="420" y="159" type="curve" smooth="yes"/>
      <point x="351" y="159"/>
      <point x="308" y="312"/>
      <point x="308" y="514" type="curve" smooth="yes"/>
      <point x="308" y="713"/>
      <point x="345" y="848"/>
      <point x="413" y="848" type="curve" smooth="yes"/>
      <point x="479" y="848"/>
      <point x="512" y="707"/>
      <point x="512" y="514" type="curve" smooth="yes"/>
      <point x="512" y="281"/>
      <point x="485" y="159"/>
    </contour>
  </outline>
</glyph>
<glyph name="Lslash" format="1">
  <advance width="703"/>
  <unicode hex="0141"/>
  <outline>
    <contour>
      <point x="644" y="0" type="line"/>
      <point x="659" y="0"/>
      <point x="671" y="4"/>
      <point x="671" y="46" type="curve" smooth="yes"/>
      <point x="671" y="159" type="line" smooth="yes"/>
      <point x="671" y="201"/>
      <point x="659" y="204"/>
      <point x="644" y="204" type="curve" smooth="yes"/>
      <point x="387" y="204" type="line" smooth="yes"/>
      <point x="380" y="204"/>
      <point x="374" y="208"/>
      <point x="374" y="228" type="curve" smooth="yes"/>
      <point x="374" y="676" type="line"/>
      <point x="538" y="715" type="line" smooth="yes"/>
      <point x="553" y="718"/>
      <point x="565" y="719"/>
      <point x="565" y="761" type="curve" smooth="yes"/>
      <point x="565" y="882" type="line" smooth="yes"/>
      <point x="565" y="924"/>
      <point x="553" y="931"/>
      <point x="538" y="928" type="curve" smooth="yes"/>
      <point x="374" y="888" type="line"/>
      <point x="374" y="1391" type="line" smooth="yes"/>
      <point x="374" y="1434"/>
      <point x="362" y="1438"/>
      <point x="348" y="1438" type="curve" smooth="yes"/>
      <point x="148" y="1438" type="line" smooth="yes"/>
      <point x="133" y="1438"/>
      <point x="121" y="1434"/>
      <point x="121" y="1391" type="curve" smooth="yes"/>
      <point x="121" y="827" type="line"/>
      <point x="45" y="808" type="line" smooth="yes"/>
      <point x="30" y="805"/>
      <point x="18" y="804"/>
      <point x="18" y="762" type="curve" smooth="yes"/>
      <point x="18" y="642" type="line" smooth="yes"/>
      <point x="18" y="600"/>
      <point x="30" y="593"/>
      <point x="45" y="596" type="curve" smooth="yes"/>
      <point x="121" y="614" type="line"/>
      <point x="121" y="47" type="line" smooth="yes"/>
      <point x="121" y="4"/>
      <point x="133" y="0"/>
      <point x="148" y="0" type="curve" smooth="yes"/>
    </contour>
  </outline>
</glyph>
<glyph name="OE" format="1">
  <advance width="1283"/>
  <unicode hex="0152"/>
  <outline>
    <contour>
      <point x="533" y="0" type="line"/>
      <point x="347" y="0"/>
      <point x="86" y="73"/>
      <point x="86" y="721" type="curve" smooth="yes"/>
      <point x="86" y="1290"/>
      <point x="321" y="1438"/>
      <point x="506" y="1438" type="curve" smooth="yes"/>
      <point x="1181" y="1438" type="line" smooth="yes"/>
      <point x="1196" y="1438"/>
      <point x="1208" y="1405"/>
      <point x="1208" y="1364" type="curve" smooth="yes"/>
      <point x="1208" y="1308" type="line" smooth="yes"/>
      <point x="1208" y="1266"/>
      <point x="1197" y="1234"/>
      <point x="1181" y="1234" type="curve" smooth="yes"/>
      <point x="870" y="1234" type="line" smooth="yes"/>
      <point x="863" y="1234"/>
      <point x="858" y="1217"/>
      <point x="858" y="1197" type="curve" smooth="yes"/>
      <point x="858" y="864" type="line"/>
      <point x="858" y="845"/>
      <point x="864" y="828"/>
      <point x="870" y="828" type="curve"/>
      <point x="1119" y="828" type="line" smooth="yes"/>
      <point x="1134" y="828"/>
      <point x="1146" y="796"/>
      <point x="1146" y="754" type="curve" smooth="yes"/>
      <point x="1146" y="698" type="line" smooth="yes"/>
      <point x="1146" y="656"/>
      <point x="1134" y="624"/>
      <point x="1119" y="624" type="curve" smooth="yes"/>
      <point x="870" y="624" type="line"/>
      <point x="864" y="624"/>
      <point x="858" y="607"/>
      <point x="858" y="588" type="curve"/>
      <point x="858" y="240" type="line"/>
      <point x="858" y="221"/>
      <point x="863" y="204"/>
      <point x="870" y="204" type="curve"/>
      <point x="1207" y="204" type="line" smooth="yes"/>
      <point x="1222" y="204"/>
      <point x="1233" y="172"/>
      <point x="1233" y="130" type="curve" smooth="yes"/>
      <point x="1233" y="75" type="line" smooth="yes"/>
      <point x="1233" y="32"/>
      <point x="1222" y="0"/>
      <point x="1207" y="0" type="curve" smooth="yes"/>
    </contour>
    <contour>
      <point x="593" y="204" type="line"/>
      <point x="600" y="204"/>
      <point x="600" y="1234"/>
      <point x="593" y="1234" type="curve"/>
      <point x="520" y="1234" type="line" smooth="yes"/>
      <point x="426" y="1234"/>
      <point x="339" y="1094"/>
      <point x="339" y="721" type="curve" smooth="yes"/>
      <point x="339" y="345"/>
      <point x="426" y="204"/>
      <point x="520" y="204" type="curve" smooth="yes"/>
    </contour>
    <contour>
      <point x="642" y="1438" type="move" name="top"/>
    </contour>
  </outline>
</glyph>
<glyph name="oe" format="1">
  <advance width="1107"/>
  <unicode hex="0153"/>
  <outline>
    <contour>
      <point x="394" y="-10" type="curve" smooth="yes"/>
      <point x="472" y="-10"/>
      <point x="544" y="26"/>
      <point x="598" y="133" type="curve"/>
      <point x="646" y="26"/>
      <point x="725" y="-10"/>
      <point x="814" y="-10" type="curve" smooth="yes"/>
      <point x="969" y="-10"/>
      <point x="1037" y="100"/>
      <point x="1037" y="235" type="curve" smooth="yes"/>
      <point x="1037" y="265"/>
      <point x="1033" y="287"/>
      <point x="1031" y="297" type="curve" smooth="yes"/>
      <point x="1029" y="307"/>
      <point x="1023" y="313"/>
      <point x="1008" y="313" type="curve" smooth="yes"/>
      <point x="925" y="313" type="line" smooth="yes"/>
      <point x="913" y="313"/>
      <point x="905" y="307"/>
      <point x="903" y="290" type="curve" smooth="yes"/>
      <point x="897" y="235"/>
      <point x="888" y="159"/>
      <point x="813" y="159" type="curve" smooth="yes"/>
      <point x="752" y="159"/>
      <point x="699" y="205"/>
      <point x="699" y="424" type="curve" smooth="yes"/>
      <point x="699" y="439"/>
      <point x="702" y="457"/>
      <point x="708" y="457" type="curve" smooth="yes"/>
      <point x="1029" y="457" type="line" smooth="yes"/>
      <point x="1044" y="457"/>
      <point x="1044" y="505"/>
      <point x="1044" y="524" type="curve"/>
      <point x="1043" y="932"/>
      <point x="917" y="1018"/>
      <point x="794" y="1018" type="curve" smooth="yes"/>
      <point x="719" y="1018"/>
      <point x="645" y="970"/>
      <point x="595" y="876" type="curve"/>
      <point x="539" y="982"/>
      <point x="456" y="1017"/>
      <point x="385" y="1017" type="curve" smooth="yes"/>
      <point x="265" y="1017"/>
      <point x="82" y="1002"/>
      <point x="82" y="507" type="curve" smooth="yes"/>
      <point x="82" y="2"/>
      <point x="262" y="-10"/>
    </contour>
    <contour>
      <point x="704" y="587" type="line"/>
      <point x="699" y="587"/>
      <point x="699" y="617"/>
      <point x="699" y="631" type="curve" smooth="yes"/>
      <point x="702" y="770"/>
      <point x="743" y="849"/>
      <point x="792" y="849" type="curve" smooth="yes"/>
      <point x="844" y="849"/>
      <point x="877" y="761"/>
      <point x="880" y="623" type="curve"/>
      <point x="880" y="610"/>
      <point x="880" y="587"/>
      <point x="876" y="587" type="curve"/>
    </contour>
    <contour>
      <point x="385" y="159" type="curve" smooth="yes"/>
      <point x="317" y="159"/>
      <point x="280" y="204"/>
      <point x="280" y="508" type="curve" smooth="yes"/>
      <point x="280" y="789"/>
      <point x="317" y="848"/>
      <point x="385" y="848" type="curve" smooth="yes"/>
      <point x="453" y="848"/>
      <point x="489" y="789"/>
      <point x="489" y="508" type="curve" smooth="yes"/>
      <point x="489" y="204"/>
      <point x="452" y="159"/>
    </contour>
    <contour>
      <point x="554" y="1006" type="move" name="top"/>
    </contour>
  </outline>
</glyph>
<glyph name="uni0237" format="1">
  <advance width="444"/>
  <unicode hex="0237"/>
  <outline>
    <contour>
      <point x="31" y="-355" type="curve" smooth="yes"/>
      <point x="136" y="-355" type="line" smooth="yes"/>
      <point x="239" y="-355"/>
      <point x="349" y="-329"/>
      <point x="349" y="-7" type="curve" smooth="yes"/>
      <point x="349" y="931" type="line" smooth="yes"/>
      <point x="349" y="974"/>
      <point x="338" y="1006"/>
      <point x="323" y="1006" type="curve" smooth="yes"/>
      <point x="174" y="1006" type="line" smooth="yes"/>
      <point x="159" y="1006"/>
      <point x="149" y="974"/>
      <point x="149" y="931" type="curve" smooth="yes"/>
      <point x="149" y="-18" type="line" smooth="yes"/>
      <point x="149" y="-134"/>
      <point x="109" y="-144"/>
      <point x="70" y="-144" type="curve" smooth="yes"/>
      <point x="30" y="-144" type="line" smooth="yes"/>
      <point x="15" y="-144"/>
      <point x="5" y="-169"/>
      <point x="5" y="-208" type="curve" smooth="yes"/>
      <point x="5" y="-282" type="line" smooth="yes"/>
      <point x="5" y="-325"/>
      <point x="16" y="-355"/>
    </contour>
    <contour>
      <point x="223" y="1006" type="move" name="top"/>
    </contour>
  </outline>
</glyph>
<glyph name="dotaccent" format="1">
  <advance width="429"/>
  <unicode hex="02D9"/>
  <outline>
    <contour>
      <point x="122" y="6" type="curve" smooth="yes"/>
      <point x="289" y="6" type="line" smooth="yes"/>
      <point x="304" y="6"/>
      <point x="316" y="11"/>
      <point x="316" y="54" type="curve" smooth="yes"/>
      <point x="316" y="233" type="line" smooth="yes"/>
      <point x="316" y="276"/>
      <point x="304" y="280"/>
      <point x="289" y="280" type="curve" smooth="yes"/>
      <point x="122" y="280" type="line" smooth="yes"/>
      <point x="107" y="280"/>
      <point x="95" y="276"/>
      <point x="95" y="233" type="curve" smooth="yes"/>
      <point x="95" y="54" type="line" smooth="yes"/>
      <point x="95" y="11"/>
      <point x="107" y="6"/>
    </contour>
    <contour>
      <point x="203" y="1006" type="move" name="_top"/>
    </contour>
  </outline>
</glyph>
<glyph name="ogonek" format="1">
  <advance width="716"/>
  <unicode hex="02DB"/>
  <outline>
    <contour>
      <point x="479" y="-368" type="curve" smooth="yes"/>
      <point x="492" y="-368"/>
      <point x="495" y="-361"/>
      <point x="495" y="-351" type="curve" smooth="yes"/>
      <point x="495" y="-282" type="line" smooth="yes"/>
      <point x="495" y="-271"/>
      <point x="461" y="-272"/>
      <point x="461" y="-272" type="curve"/>
      <point x="371" y="-272"/>
      <point x="358" y="-196"/>
      <point x="358" y="-121" type="curve" smooth="yes"/>
      <point x="358" y="-34"/>
      <point x="384" y="-2"/>
      <point x="432" y="0" type="curve"/>
      <point x="435" y="44" type="line"/>
      <point x="294" y="42"/>
      <point x="185" y="-25"/>
      <point x="185" y="-193" type="curve" smooth="yes"/>
      <point x="185" y="-274"/>
      <point x="258" y="-368"/>
      <point x="415" y="-368" type="curve" smooth="yes"/>
      <point x="415" y="-368"/>
      <point x="479" y="-368"/>
    </contour>
    <contour>
      <point x="495" y="10" type="move" name="_ogonek"/>
    </contour>
  </outline>
</glyph>
<glyph name="tilde" format="1">
  <advance width="1015"/>
  <unicode hex="02DC"/>
  <outline>
    <contour>
      <point x="677" y="790" type="curve" smooth="yes"/>
      <point x="696" y="790"/>
      <point x="718" y="809"/>
      <point x="718" y="830" type="curve" smooth="yes"/>
      <point x="718" y="843"/>
      <point x="705" y="866"/>
      <point x="692" y="885" type="curve" smooth="yes"/>
      <point x="661" y="928"/>
      <point x="628" y="982"/>
      <point x="569" y="982" type="curve" smooth="yes"/>
      <point x="484" y="982"/>
      <point x="401" y="896"/>
      <point x="345" y="896" type="curve" smooth="yes"/>
      <point x="325" y="896"/>
      <point x="313" y="916"/>
      <point x="302" y="932" type="curve"/>
      <point x="291" y="948"/>
      <point x="276" y="968"/>
      <point x="252" y="968" type="curve" smooth="yes"/>
      <point x="233" y="968"/>
      <point x="211" y="950"/>
      <point x="211" y="929" type="curve" smooth="yes"/>
      <point x="211" y="915"/>
      <point x="223" y="892"/>
      <point x="237" y="874" type="curve" smooth="yes"/>
      <point x="267" y="831"/>
      <point x="300" y="776"/>
      <point x="360" y="776" type="curve" smooth="yes"/>
      <point x="470" y="776"/>
      <point x="531" y="863"/>
      <point x="584" y="863" type="curve" smooth="yes"/>
      <point x="604" y="863"/>
      <point x="615" y="842"/>
      <point x="627" y="826" type="curve" smooth="yes"/>
      <point x="638" y="811"/>
      <point x="653" y="790"/>
    </contour>
    <contour>
      <point x="472" y="1006" type="move" name="_top"/>
    </contour>
  </outline>
</glyph>
<glyph name="hungarumlaut" format="1">
  <advance width="599"/>
  <unicode hex="02DD"/>
  <outline>
    <contour>
      <point x="180" y="1171" type="curve" smooth="yes"/>
      <point x="216" y="1171" type="line" smooth="yes"/>
      <point x="230" y="1171"/>
      <point x="232" y="1192"/>
      <point x="235" y="1210" type="curve" smooth="yes"/>
      <point x="311" y="1556" type="line" smooth="yes"/>
      <point x="313" y="1568"/>
      <point x="315" y="1582"/>
      <point x="315" y="1593" type="curve" smooth="yes"/>
      <point x="315" y="1609"/>
      <point x="312" y="1621"/>
      <point x="306" y="1621" type="curve" smooth="yes"/>
      <point x="213" y="1621" type="line" smooth="yes"/>
      <point x="198" y="1621"/>
      <point x="190" y="1609"/>
      <point x="187" y="1566" type="curve" smooth="yes"/>
      <point x="167" y="1238" type="line" smooth="yes"/>
      <point x="166" y="1224"/>
      <point x="165" y="1212"/>
      <point x="165" y="1203" type="curve" smooth="yes"/>
      <point x="165" y="1176"/>
      <point x="170" y="1171"/>
    </contour>
    <contour>
      <point x="354" y="1171" type="curve" smooth="yes"/>
      <point x="391" y="1171" type="line" smooth="yes"/>
      <point x="403" y="1171"/>
      <point x="406" y="1192"/>
      <point x="410" y="1210" type="curve"/>
      <point x="486" y="1556" type="line" smooth="yes"/>
      <point x="488" y="1568"/>
      <point x="490" y="1582"/>
      <point x="490" y="1593" type="curve" smooth="yes"/>
      <point x="490" y="1609"/>
      <point x="487" y="1621"/>
      <point x="480" y="1621" type="curve" smooth="yes"/>
      <point x="387" y="1621" type="line" smooth="yes"/>
      <point x="372" y="1621"/>
      <point x="365" y="1609"/>
      <point x="362" y="1566" type="curve" smooth="yes"/>
      <point x="341" y="1238" type="line" smooth="yes"/>
      <point x="340" y="1224"/>
      <point x="340" y="1212"/>
      <point x="340" y="1203" type="curve" smooth="yes"/>
      <point x="340" y="1176"/>
      <point x="344" y="1171"/>
    </contour>
    <contour>
      <point x="328" y="1006" type="move" name="_top"/>
    </contour>
  </outline>
</glyph>
<glyph name="dblgravecmb" format="1">
  <advance width="599"/>
  <unicode hex="030F"/>
  <outline>
    <contour>
      <point x="222" y="1171" type="curve" smooth="yes"/>
      <point x="258" y="1171" type="line" smooth="yes"/>
      <point x="268" y="1171"/>
      <point x="272" y="1176"/>
      <point x="272" y="1202" type="curve" smooth="yes"/>
      <point x="272" y="1211"/>
      <point x="272" y="1224"/>
      <point x="271" y="1238" type="curve" smooth="yes"/>
      <point x="250" y="1562" type="line" smooth="yes"/>
      <point x="247" y="1605"/>
      <point x="240" y="1617"/>
      <point x="225" y="1617" type="curve" smooth="yes"/>
      <point x="133" y="1617" type="line" smooth="yes"/>
      <point x="126" y="1617"/>
      <point x="122" y="1605"/>
      <point x="122" y="1589" type="curve" smooth="yes"/>
      <point x="122" y="1578"/>
      <point x="125" y="1564"/>
      <point x="127" y="1552" type="curve" smooth="yes"/>
      <point x="203" y="1210" type="line"/>
      <point x="207" y="1192"/>
      <point x="210" y="1171"/>
    </contour>
    <contour>
      <point x="401" y="1171" type="curve" smooth="yes"/>
      <point x="437" y="1171" type="line" smooth="yes"/>
      <point x="447" y="1171"/>
      <point x="451" y="1176"/>
      <point x="451" y="1202" type="curve" smooth="yes"/>
      <point x="451" y="1211"/>
      <point x="450" y="1224"/>
      <point x="449" y="1238" type="curve" smooth="yes"/>
      <point x="429" y="1562" type="line"/>
      <point x="426" y="1605"/>
      <point x="418" y="1617"/>
      <point x="403" y="1617" type="curve" smooth="yes"/>
      <point x="311" y="1617" type="line" smooth="yes"/>
      <point x="305" y="1617"/>
      <point x="301" y="1605"/>
      <point x="301" y="1589" type="curve" smooth="yes"/>
      <point x="301" y="1578"/>
      <point x="303" y="1564"/>
      <point x="305" y="1552" type="curve" smooth="yes"/>
      <point x="382" y="1210" type="line" smooth="yes"/>
      <point x="385" y="1192"/>
      <point x="387" y="1171"/>
    </contour>
    <contour>
      <point x="287" y="1006" type="move" name="_top"/>
    </contour>
  </outline>
</glyph>
<glyph name="Delta" format="1">
  <advance width="860"/>
  <unicode hex="0394"/>
  <outline>
    <contour>
      <point x="81" y="250" type="curve" smooth="yes"/>
      <point x="778" y="250" type="line" smooth="yes"/>
      <point x="788" y="250"/>
      <point x="795" y="252"/>
      <point x="795" y="277" type="curve" smooth="yes"/>
      <point x="795" y="284"/>
      <point x="794" y="310"/>
      <point x="793" y="318" type="curve" smooth="yes"/>
      <point x="594" y="1387" type="line" smooth="yes"/>
      <point x="587" y="1428"/>
      <point x="573" y="1432"/>
      <point x="557" y="1433" type="curve"/>
      <point x="300" y="1433" type="line"/>
      <point x="284" y="1432"/>
      <point x="271" y="1428"/>
      <point x="263" y="1387" type="curve" smooth="yes"/>
      <point x="66" y="318" type="line" smooth="yes"/>
      <point x="66" y="310"/>
      <point x="65" y="284"/>
      <point x="65" y="277" type="curve" smooth="yes"/>
      <point x="65" y="252"/>
      <point x="72" y="250"/>
    </contour>
    <contour>
      <point x="345" y="449" type="line"/>
      <point x="331" y="449"/>
      <point x="328" y="460"/>
      <point x="328" y="473" type="curve" smooth="yes"/>
      <point x="328" y="476"/>
      <point x="328" y="479"/>
      <point x="329" y="482" type="curve" smooth="yes"/>
      <point x="423" y="1160" type="line"/>
      <point x="424" y="1166"/>
      <point x="426" y="1169"/>
      <point x="428" y="1169" type="curve"/>
      <point x="430" y="1169"/>
      <point x="431" y="1166"/>
      <point x="432" y="1159" type="curve" smooth="yes"/>
      <point x="513" y="482" type="line"/>
      <point x="514" y="480"/>
      <point x="514" y="476"/>
      <point x="514" y="473" type="curve" smooth="yes"/>
      <point x="514" y="460"/>
      <point x="511" y="449"/>
      <point x="506" y="449" type="curve" smooth="yes"/>
    </contour>
  </outline>
</glyph>
<glyph name="endash" format="1">
  <advance width="1024"/>
  <unicode hex="2013"/>
  <outline>
    <contour>
      <point x="99" y="524" type="line"/>
      <point x="921" y="524" type="line"/>
      <point x="921" y="715" type="line"/>
      <point x="99" y="715" type="line"/>
    </contour>
  </outline>
</glyph>
<glyph name="emdash" format="1">
  <advance width="2048"/>
  <unicode hex="2014"/>
  <outline>
    <contour>
      <point x="99" y="524" type="line"/>
      <point x="1945" y="524" type="line"/>
      <point x="1945" y="715" type="line"/>
      <point x="99" y="715" type="line"/>
    </contour>
  </outline>
</glyph>
<glyph name="fraction" format="1">
  <advance width="601"/>
  <unicode hex="2044"/>
  <outline>
    <contour>
      <point x="91" y="-205" type="curve" smooth="yes"/>
      <point x="202" y="-207" type="line" smooth="yes"/>
      <point x="209" y="-207"/>
      <point x="217" y="-194"/>
      <point x="220" y="-174" type="curve" smooth="yes"/>
      <point x="521" y="1614" type="line" smooth="yes"/>
      <point x="524" y="1629"/>
      <point x="520" y="1647"/>
      <point x="514" y="1647" type="curve" smooth="yes"/>
      <point x="404" y="1647" type="line" smooth="yes"/>
      <point x="397" y="1647"/>
      <point x="389" y="1634"/>
      <point x="386" y="1614" type="curve" smooth="yes"/>
      <point x="84" y="-172" type="line" smooth="yes"/>
      <point x="82" y="-187"/>
      <point x="86" y="-205"/>
    </contour>
  </outline>
</glyph>
<glyph name="Euro" format="1">
  <advance width="743"/>
  <unicode hex="20AC"/>
  <outline>
    <contour>
      <point x="522" y="-20" type="curve" smooth="yes"/>
      <point x="583" y="-20"/>
      <point x="646" y="-10"/>
      <point x="683" y="5" type="curve" smooth="yes"/>
      <point x="689" y="7"/>
      <point x="693" y="18"/>
      <point x="693" y="32" type="curve" smooth="yes"/>
      <point x="693" y="177" type="line" smooth="yes"/>
      <point x="693" y="191"/>
      <point x="689" y="202"/>
      <point x="684" y="204" type="curve" smooth="yes"/>
      <point x="648" y="192"/>
      <point x="617" y="186"/>
      <point x="560" y="186" type="curve" smooth="yes"/>
      <point x="446" y="186"/>
      <point x="371" y="226"/>
      <point x="347" y="495" type="curve"/>
      <point x="510" y="495" type="line" smooth="yes"/>
      <point x="524" y="495"/>
      <point x="535" y="499"/>
      <point x="535" y="542" type="curve" smooth="yes"/>
      <point x="535" y="600" type="line" smooth="yes"/>
      <point x="535" y="643"/>
      <point x="524" y="647"/>
      <point x="510" y="647" type="curve" smooth="yes"/>
      <point x="340" y="647" type="line"/>
      <point x="339" y="670"/>
      <point x="339" y="694"/>
      <point x="339" y="719" type="curve" smooth="yes"/>
      <point x="339" y="741"/>
      <point x="339" y="761"/>
      <point x="340" y="781" type="curve"/>
      <point x="510" y="781" type="line" smooth="yes"/>
      <point x="524" y="781"/>
      <point x="535" y="785"/>
      <point x="535" y="828" type="curve" smooth="yes"/>
      <point x="535" y="886" type="line" smooth="yes"/>
      <point x="535" y="929"/>
      <point x="524" y="933"/>
      <point x="510" y="933" type="curve" smooth="yes"/>
      <point x="348" y="933" type="line"/>
      <point x="374" y="1208"/>
      <point x="459" y="1251"/>
      <point x="571" y="1251" type="curve" smooth="yes"/>
      <point x="631" y="1251"/>
      <point x="684" y="1237"/>
      <point x="688" y="1237" type="curve" smooth="yes"/>
      <point x="692" y="1237"/>
      <point x="695" y="1238"/>
      <point x="695" y="1252" type="curve" smooth="yes"/>
      <point x="695" y="1408" type="line" smooth="yes"/>
      <point x="665" y="1452"/>
      <point x="571" y="1460"/>
      <point x="525" y="1460" type="curve" smooth="yes"/>
      <point x="321" y="1460"/>
      <point x="136" y="1399"/>
      <point x="95" y="933" type="curve"/>
      <point x="37" y="933" type="line" smooth="yes"/>
      <point x="22" y="933"/>
      <point x="10" y="929"/>
      <point x="10" y="886" type="curve" smooth="yes"/>
      <point x="10" y="828" type="line" smooth="yes"/>
      <point x="10" y="785"/>
      <point x="22" y="781"/>
      <point x="37" y="781" type="curve" smooth="yes"/>
      <point x="87" y="781" type="line"/>
      <point x="86" y="761"/>
      <point x="86" y="740"/>
      <point x="86" y="719" type="curve" smooth="yes"/>
      <point x="86" y="694"/>
      <point x="86" y="670"/>
      <point x="87" y="647" type="curve"/>
      <point x="37" y="647" type="line" smooth="yes"/>
      <point x="22" y="647"/>
      <point x="10" y="643"/>
      <point x="10" y="600" type="curve" smooth="yes"/>
      <point x="10" y="542" type="line" smooth="yes"/>
      <point x="10" y="499"/>
      <point x="22" y="495"/>
      <point x="37" y="495" type="curve" smooth="yes"/>
      <point x="95" y="495" type="line"/>
      <point x="136" y="37"/>
      <point x="312" y="-20"/>
    </contour>
  </outline>
</glyph>
<glyph name="integral" format="1">
  <advance width="579"/>
  <unicode hex="222B"/>
  <outline>
    <contour>
      <point x="22" y="-162" type="curve" smooth="yes"/>
      <point x="33" y="-162"/>
      <point x="46" y="-161"/>
      <point x="61" y="-161" type="curve" smooth="yes"/>
      <point x="187" y="-161"/>
      <point x="320" y="-44"/>
      <point x="340" y="239" type="curve" smooth="yes"/>
      <point x="405" y="1123" type="line" smooth="yes"/>
      <point x="414" y="1255"/>
      <point x="458" y="1301"/>
      <point x="513" y="1301" type="curve" smooth="yes"/>
      <point x="544" y="1301" type="line" smooth="yes"/>
      <point x="555" y="1301"/>
      <point x="558" y="1315"/>
      <point x="561" y="1351" type="curve" smooth="yes"/>
      <point x="562" y="1351"/>
      <point x="568" y="1429"/>
      <point x="568" y="1429" type="curve" smooth="yes"/>
      <point x="569" y="1445"/>
      <point x="532" y="1465"/>
      <point x="467" y="1465" type="curve" smooth="yes"/>
      <point x="341" y="1465"/>
      <point x="219" y="1391"/>
      <point x="193" y="1065" type="curve" smooth="yes"/>
      <point x="123" y="178" type="line" smooth="yes"/>
      <point x="113" y="36"/>
      <point x="70" y="0"/>
      <point x="15" y="0" type="curve" smooth="yes"/>
      <point x="-6" y="0" type="line" smooth="yes"/>
      <point x="-17" y="0"/>
      <point x="-20" y="-14"/>
      <point x="-23" y="-49" type="curve" smooth="yes"/>
      <point x="-24" y="-50"/>
      <point x="-30" y="-118"/>
      <point x="-30" y="-119" type="curve" smooth="yes"/>
      <point x="-30" y="-157"/>
      <point x="-14" y="-162"/>
    </contour>
  </outline>
</glyph>
